<svg width="934" height="934" viewBox="0 0 934 934" fill="none" xmlns="http://www.w3.org/2000/svg">
<path d="M810.986 363.482L757.788 310.513C753.382 306.148 747.424 303.711 741.22 303.747H571.82C539.774 264.331 496.747 235.31 448.195 220.362C399.643 205.414 347.747 205.211 299.075 219.779C250.408 234.341 207.158 263.024 174.799 302.185C142.444 341.352 122.435 389.232 117.31 439.772C112.184 490.312 122.174 541.241 146.012 586.105C169.846 630.969 206.46 667.745 251.215 691.783C294.48 715.783 343.799 726.663 393.148 723.1C442.498 719.537 489.742 701.684 529.122 671.72C549.758 690.34 572.278 706.767 596.319 720.72C599.866 722.767 603.892 723.845 607.986 723.845C612.079 723.845 616.105 722.767 619.652 720.72C679.647 686.272 729.543 636.679 764.346 576.893C799.148 517.107 817.648 449.232 817.982 380.053C817.956 373.814 815.435 367.85 810.982 363.485L810.986 363.482ZM386.559 650.482C386.507 642.618 387.444 634.779 389.356 627.149C396.064 634.519 405.096 639.373 414.944 640.903C424.788 642.429 434.865 640.539 443.491 635.549L450.256 631.581C461.032 625.31 473.715 623.153 485.959 625.513L495.761 637.648H495.756C464.98 660.07 428.683 673.7 390.756 677.08C388.006 668.481 386.59 659.507 386.559 650.482ZM426.695 591.914L422.497 594.482H422.492C414.367 583.737 401.664 577.43 388.189 577.446C379.028 577.368 370.069 580.196 362.611 585.519C355.147 590.842 349.564 598.389 346.657 607.082C342.251 620.811 339.97 635.128 339.892 649.551C340.001 657.379 340.782 665.187 342.225 672.884C323.98 669.806 306.189 664.478 289.256 657.015L310.021 566.484C317.651 532.771 309.011 497.438 286.688 471.052L284.354 468.25C274.745 456.719 269.464 442.193 269.422 427.182C269.402 421.437 270.11 415.718 271.521 410.151C281.5 372.823 271.235 333.001 244.459 305.151L242.823 303.75C278.006 275.078 321.599 258.688 366.959 257.084L402.891 291.849C416.579 305.13 424.886 322.994 426.225 342.016L405.225 363.016C400.771 367.38 398.251 373.349 398.225 379.584C398.381 450.594 417.902 520.21 454.689 580.944C444.86 583.173 435.418 586.866 426.689 591.912L426.695 591.914ZM465.19 305.847C460.544 292.389 453.596 279.837 444.659 268.749C467.028 276.843 487.856 288.675 506.258 303.749H474.758C471.456 303.764 468.195 304.478 465.19 305.847ZM164.656 467.087C164.896 419.634 181.364 373.691 211.323 336.89C227.172 353.145 233.292 376.551 227.422 398.489C217.797 433.395 225.906 470.801 249.124 498.587L251.458 501.39C264.348 516.696 269.198 537.223 264.52 556.687L247.255 632.52C195.619 593.119 165.124 532.042 164.656 467.094L164.656 467.087ZM607.99 673.114C559.563 642.921 519.323 601.259 490.834 551.811C462.35 502.363 446.484 446.655 444.656 389.611L484.323 350.414H731.656L771.323 389.611C769.495 446.653 753.63 502.361 725.146 551.811C696.656 601.259 656.416 642.921 607.99 673.114Z" fill="#F58426"/>
</svg>
