<svg width="934" height="934" viewBox="0 0 934 934" fill="none" xmlns="http://www.w3.org/2000/svg">
<path fill-rule="evenodd" clip-rule="evenodd" d="M389.631 165C381.159 165 378.759 171.863 378.759 180.347V236.618C378.759 238.492 379.104 240.395 379.719 242.054L348.384 247.806C341.062 249.107 337.836 255.385 337.836 262.833V359.391H260.142L237.442 266.668C235.139 251.219 213.487 236.297 192.043 236.297C166.729 236.297 146 257.181 146 282.976C146 298.833 153.958 313.575 167.104 322.303C174.182 326.989 183.508 325.217 188.203 318.147C192.889 311.086 191.095 301.41 184.047 296.723C179.487 293.696 176.695 288.521 176.695 282.976C176.695 273.961 183.508 266.988 192.042 266.988C199.007 266.988 205.457 271.093 207.706 273.384L298.508 647.778L305.543 684.545C306.925 691.766 313.211 697.012 320.568 697.012H350.943C352.775 736.36 385.324 767.67 425.117 767.67C464.907 767.67 497.46 736.356 499.291 697.012H587.217C589.049 736.36 621.597 767.67 661.391 767.67C701.181 767.67 733.729 736.356 735.565 697.012H768.176C776.648 697.012 788 690.148 788 681.664V579.355C788 570.874 776.648 564.007 768.176 564.007H698.478L786.404 381.451C788.682 376.693 788.248 370.895 785.444 366.423C782.639 361.964 777.612 359.392 772.336 359.392H703.913L654.674 248.129C653.006 244.364 649.89 241.27 646.042 239.817C642.198 238.356 637.928 238.739 634.214 240.457L541.491 282.98C542.106 281.321 542.451 279.418 542.451 277.544V180.35C542.451 171.866 531.1 165.003 522.627 165.003L389.631 165ZM409.451 195.692H511.765V220.311C509.672 219.676 507.39 219.259 505.049 219.671L409.45 236.94C409.454 236.834 409.45 236.725 409.45 236.62L409.451 195.692ZM488.106 254.202L461.566 349.16H368.529V275.626L488.106 254.202ZM632.935 274.665L670.342 359.392H568.993L545.974 314.629L632.935 274.665ZM511.766 277.541C511.766 284.257 515.998 289.845 521.998 291.929L518.478 293.529C514.663 295.289 511.846 298.523 510.486 302.481C509.126 306.452 509.193 310.907 511.126 314.629L534.465 359.392H490.662L511.766 277.541ZM270.376 390.087H748.046L664.596 564.02H312.903L270.376 390.087ZM319.616 594.709H757.316V666.327H730.456C719.56 638.822 692.738 619.327 661.398 619.327C629.953 619.327 603.166 638.991 592.34 666.646C591.342 666.439 590.201 666.326 589.14 666.326H494.186C483.29 638.821 456.463 619.326 425.124 619.326C393.679 619.326 366.891 638.99 356.066 666.645C355.35 666.539 354.571 666.325 353.826 666.325H334.642L328.25 639.465L319.616 594.709ZM425.122 650.019C449.165 650.019 468.925 669.459 468.925 693.502C468.925 717.536 449.165 736.985 425.122 736.985C401.079 736.985 381.638 717.536 381.638 693.502C381.638 669.459 401.079 650.019 425.122 650.019ZM661.402 650.019C685.436 650.019 705.205 669.459 705.205 693.502C705.205 717.536 685.436 736.985 661.402 736.985C637.359 736.985 617.918 717.536 617.918 693.502C617.918 669.459 637.359 650.019 661.402 650.019Z" fill="#F58426"/>
</svg>
