<svg width="934" height="934" viewBox="0 0 934 934" fill="none" xmlns="http://www.w3.org/2000/svg">
<path d="M606.998 536.997C662.695 536.997 716.107 514.872 755.491 475.492C794.871 436.107 816.996 382.695 816.996 326.999C816.996 271.303 794.871 217.889 755.491 178.505C716.106 139.125 662.694 117 606.998 117C551.302 117 497.888 139.125 458.504 178.505C419.124 217.891 396.999 271.303 396.999 326.999C396.999 382.695 419.124 436.108 458.504 475.492C497.89 514.872 551.302 536.997 606.998 536.997ZM621.232 473.763C620.998 470.659 620.998 467.539 621.232 464.429C627.394 468.768 634.664 471.247 642.191 471.575C649.717 471.909 657.18 470.075 663.696 466.299L669.061 463.034L669.066 463.028C678.602 457.627 690.039 456.685 700.331 460.466C677.582 476.887 650.982 487.174 623.097 490.33C621.852 484.898 621.227 479.341 621.232 473.763ZM736.498 427.096C723.404 417.935 707.951 412.732 691.976 412.112C676.007 411.492 660.195 415.482 646.43 423.596C636.804 413.44 622.518 409.148 608.888 412.315C595.258 415.482 584.326 425.638 580.164 438.998C576.503 450.467 574.617 462.425 574.565 474.467C574.336 478.972 574.336 483.488 574.565 487.998C563.873 485.769 553.409 482.566 543.3 478.43L558.936 408.43H558.931C565.67 380.154 558.566 350.362 539.8 328.165L537.935 325.831H537.93C530.972 317.436 527.175 306.867 527.196 295.967C527.133 291.785 527.685 287.619 528.831 283.598C537.024 252.978 529.118 220.291 507.831 196.8C534.138 176.686 565.982 165.123 599.066 163.664L626.369 190.028H626.363C637.608 201.013 643.921 216.08 643.863 231.799C644.301 235.752 644.301 239.742 643.863 243.695C640.879 258.274 644.275 273.43 653.197 285.335C662.113 297.246 675.707 304.767 690.53 305.996L711.296 307.632H711.301C713.561 307.778 715.457 309.387 715.967 311.595C718.728 322.371 724.9 331.97 733.561 338.95C742.227 345.929 752.915 349.924 764.03 350.33H768.467C764.493 378.002 753.489 404.194 736.498 426.398L736.498 427.096ZM768.467 303.664H764.732C762.508 303.622 760.592 302.091 760.066 299.93C757.238 289.529 751.212 280.279 742.836 273.492C734.462 266.711 724.159 262.732 713.399 262.133L692.399 260.268V260.263C690.936 259.774 689.863 258.518 689.597 256.998C688.644 255.727 688.227 254.138 688.43 252.565C689.811 245.649 690.514 238.617 690.529 231.565C690.363 212.716 685.123 194.259 675.363 178.133C725.701 201.451 760.764 248.727 768.467 303.664ZM475.64 230.399C484.937 241.909 488.229 257.144 484.505 271.467C482.359 279.534 481.26 287.847 481.239 296.196C481.197 318.003 488.791 339.139 502.703 355.931L504.802 358.264H504.807C514.177 369.368 517.651 384.3 514.141 398.4L502.005 452.067C470.302 425.359 449.942 387.597 445.046 346.441C440.151 305.28 451.083 263.796 475.64 230.4L475.64 230.399Z" fill="#F58426"/>
<path d="M746.997 617.504L653.664 636.64C653.893 632.13 653.893 627.614 653.664 623.104C653.18 604.453 645.263 586.771 631.685 573.979C618.101 561.187 599.977 554.343 581.331 554.973C551.003 555.973 520.888 549.567 493.596 536.307L449.498 516.943V516.937C437.659 511.823 424.476 510.677 411.93 513.672C410.31 513.885 408.737 514.359 407.263 515.073L335.399 547.505C332.868 539.797 329.253 532.489 324.664 525.808C314.243 510.729 298.326 500.338 280.331 496.87L144.531 476.568V476.573C137.698 475.323 130.662 477.182 125.334 481.651C120.011 486.115 116.959 492.724 117 499.672V779.672C117 785.86 119.459 791.797 123.834 796.172C128.209 800.547 134.146 803.006 140.334 803.006H243C259.615 802.282 275.47 795.813 287.85 784.708C300.23 773.604 308.38 758.547 310.902 742.104L479.368 806.968L479.363 806.974C496.139 813.656 514.041 817.062 532.098 817.005C550.571 816.994 568.874 813.432 585.999 806.505L779.426 728.103C793.519 722.364 804.905 711.483 811.275 697.661C817.645 683.838 818.52 668.114 813.728 653.671C808.827 640.614 799.379 629.765 787.119 623.119C774.859 616.473 760.608 614.479 746.994 617.505L746.997 617.504ZM242.997 756.331H163.664V526.731L272.633 543.064C278.42 544.33 283.508 547.751 286.863 552.632C292.925 561.762 295.108 572.924 292.931 583.662L265.4 731.596C262.832 746.997 253.263 756.331 242.997 756.331ZM761.691 684.929L568.491 763.096C545.261 772.32 519.387 772.32 496.157 763.096L319.758 695.664L337.955 597.429L423.591 558.695C425.836 558.471 428.096 558.877 430.127 559.861L474.461 579.225V579.231C507.893 595.376 544.674 603.376 581.794 602.564C588.221 602.178 594.518 604.465 599.206 608.882C603.888 613.298 606.539 619.46 606.524 625.898C606.706 631.403 606.076 636.908 604.659 642.231L473.295 605.367V605.362C467.196 603.148 460.446 603.575 454.675 606.534C448.899 609.497 444.623 614.732 442.863 620.976C441.107 627.226 442.034 633.919 445.415 639.46C448.795 644.997 454.331 648.877 460.691 650.163L608.851 691.694H619.819L756.553 663.694C762.272 662.189 768.157 665.496 769.85 671.163C770.589 677.079 767.23 682.741 761.683 684.928L761.691 684.929Z" fill="#F58426"/>
</svg>
