<svg width="934" height="934" viewBox="0 0 934 934" fill="none" xmlns="http://www.w3.org/2000/svg">
<path d="M816.999 373.876C816.999 355.308 809.624 337.507 796.499 324.376C783.368 311.251 765.567 303.876 746.999 303.876H715.499C706.853 278.892 691.301 256.86 670.655 240.345C650.009 223.829 625.108 213.496 598.832 210.543C585.926 173.849 558.337 144.183 522.681 128.652C487.02 113.116 446.509 113.116 410.853 128.652C375.192 144.183 347.608 173.849 334.697 210.543C308.427 213.496 283.52 223.829 262.875 240.345C242.229 256.861 226.681 278.892 218.031 303.876H187C168.432 303.876 150.631 311.251 137.5 324.376C124.375 337.506 117 355.308 117 373.876C117.042 393.745 125.521 412.663 140.333 425.907C121.412 479.808 113.979 537.073 118.521 594.013C123.064 650.953 139.475 706.32 166.699 756.533C176.719 774.84 191.459 790.127 209.396 800.799C227.328 811.465 247.797 817.132 268.667 817.2H665.333C686.203 817.132 706.672 811.466 724.604 800.799C742.541 790.127 757.281 774.84 767.301 756.533C794.525 706.315 810.937 650.949 815.479 594.013C820.02 537.077 812.588 479.805 793.667 425.907C808.479 412.662 816.957 393.745 816.999 373.876ZM350.332 257.209H352.665C358.124 257.319 363.447 255.511 367.712 252.1C371.978 248.689 374.91 243.892 375.998 238.543C381.754 210.193 400.332 186.116 426.296 173.355C452.26 160.593 482.67 160.594 508.634 173.355C534.598 186.115 553.176 210.193 558.932 238.543C560.025 243.892 562.958 248.689 567.218 252.1C571.484 255.511 576.807 257.319 582.265 257.209H583.666C616.978 257.246 647.745 275.027 664.401 303.876H269.601C286.257 275.027 317.022 257.245 350.335 257.209H350.332ZM186.999 350.543H746.999C755.337 350.543 763.04 354.991 767.207 362.209C771.373 369.428 771.373 378.324 767.207 385.543C763.04 392.761 755.337 397.209 746.999 397.209H186.999C178.66 397.209 170.957 392.761 166.791 385.543C162.624 378.324 162.624 369.428 166.791 362.209C170.957 354.991 178.66 350.543 186.999 350.543ZM726.239 734.143C720.249 745.085 711.447 754.231 700.739 760.632C690.036 767.028 677.812 770.455 665.337 770.544H268.671C256.197 770.455 243.973 767.028 233.269 760.632C222.561 754.231 213.759 745.085 207.769 734.143C183.873 690.064 169.4 641.503 165.264 591.529C161.129 541.565 167.415 491.279 183.737 443.876H750.271C766.593 491.283 772.88 541.569 768.744 591.529C764.609 641.499 750.135 690.06 726.239 734.143Z" fill="#F58426"/>
<path d="M547.265 500.569C521.572 488.049 492.005 486.028 464.844 494.944C437.688 503.861 415.068 523.007 401.792 548.319C388.516 573.636 385.625 603.126 393.735 630.538L371.803 652.47C367.407 656.834 364.928 662.761 364.907 668.954C364.881 675.146 367.323 681.094 371.683 685.484C376.047 689.88 381.975 692.359 388.167 692.38C394.359 692.406 400.308 689.964 404.698 685.604L426.864 663.438C454.359 671.953 484.094 669.318 509.662 656.104C535.23 642.891 554.579 620.156 563.531 592.807C572.489 565.452 570.333 535.676 557.531 509.9C555.135 505.822 551.557 502.567 547.265 500.567L547.265 500.569ZM503.635 603.705C495.442 612.158 485.009 618.096 473.561 620.825C462.108 623.555 450.119 622.956 438.999 619.107C433.999 604.164 434.754 587.899 441.118 573.487C447.488 559.075 459.004 547.56 473.416 541.195C487.822 534.83 504.093 534.07 519.03 539.07C522.884 550.195 523.478 562.184 520.749 573.632C518.025 585.08 512.083 595.512 503.635 603.705Z" fill="#F58426"/>
</svg>
