<svg width="934" height="934" viewBox="0 0 934 934" fill="none" xmlns="http://www.w3.org/2000/svg">
<path d="M523.734 787.679C426.204 787.679 347.801 751.278 264.974 668.679C177.005 580.71 141.542 497.879 146.444 391.479C147.782 365.063 158.933 340.099 177.709 321.479L181.443 317.745C205.063 294.026 238.449 282.776 271.605 287.36C304.766 291.948 333.845 311.838 350.141 341.078L355.276 350.412C361.755 362.219 364.235 375.808 362.339 389.141C360.448 402.48 354.287 414.838 344.776 424.376L313.973 455.178C332.025 489.924 355.671 521.454 383.973 548.512C411.031 576.814 442.561 600.46 477.307 618.512L508.337 587.709C518.098 578.121 530.744 572.012 544.327 570.324C557.905 568.636 571.66 571.464 583.472 578.376L592.805 583.511C622.045 599.809 641.936 628.886 646.519 662.047C651.107 695.203 639.857 728.589 616.139 752.209L612.404 755.943C593.779 774.719 568.82 785.87 542.404 787.208L523.734 787.679ZM256.801 321.013C237.853 320.903 219.665 328.482 206.4 342.013L202.665 345.747C190.03 358.096 182.525 374.763 181.665 392.414C176.999 490.179 208.499 562.507 289.701 643.947C370.899 725.379 443.461 756.417 540.528 752.213C558.173 751.353 574.845 743.853 587.195 731.213L590.929 727.478V727.483C606.872 711.587 614.418 689.119 611.298 666.822C608.179 644.525 594.757 624.989 575.058 614.082L565.959 608.947C560.788 606.072 554.814 604.972 548.954 605.816C543.1 606.66 537.678 609.4 533.527 613.613L494.793 653.515C490.163 658.176 483.288 659.801 477.058 657.712C432.683 638.682 392.897 610.352 360.391 574.65C324.683 542.139 296.361 502.358 277.323 457.983C274.266 451.629 275.376 444.056 280.126 438.847L319.323 399.415C323.542 395.264 326.281 389.842 327.125 383.983C327.969 378.129 326.865 372.155 323.99 366.983L318.854 357.884L318.859 357.879C308.104 338.368 288.865 324.994 266.823 321.712C263.5 321.259 260.146 321.025 256.792 321.014L256.801 321.013ZM618.708 484.346C594.109 484.325 569.817 478.909 547.541 468.482L504.844 477.118L504.839 477.112C491.448 479.8 477.593 475.612 467.937 465.951C458.276 456.289 454.088 442.44 456.776 429.044L465.411 386.347H465.406C450.083 353.763 445.666 317.107 452.807 281.816C459.859 247.15 477.578 215.556 503.474 191.456C529.375 167.358 562.156 151.956 597.239 147.415C655.832 139.795 714.151 163.306 751.092 209.42C788.024 255.54 798.223 317.587 777.988 373.1C757.754 428.616 710.024 469.548 652.076 481.084C641.003 483.214 629.754 484.308 618.478 484.35L618.708 484.346ZM549.874 432.778C552.697 432.815 555.484 433.45 558.041 434.648C596.052 454.054 641.025 454.221 679.177 435.096C717.328 415.97 744.104 379.83 751.297 337.768C758.49 295.7 745.24 252.721 715.609 222.002C685.978 191.289 643.505 176.502 601.208 182.18C557.948 187.649 520.072 213.862 499.724 252.425C479.376 290.988 479.109 337.05 499.005 375.846C500.812 379.367 501.385 383.393 500.64 387.279L490.14 436.044C489.807 437.924 490.411 439.846 491.76 441.195C493.109 442.544 495.031 443.148 496.906 442.815L545.671 433.013L549.874 432.778ZM670.973 268.518C670.848 258.904 663.088 251.143 653.473 251.018H583.473C573.806 251.018 565.973 258.851 565.973 268.518C565.973 278.185 573.806 286.018 583.473 286.018H653.473C663.088 285.893 670.848 278.133 670.973 268.518ZM670.973 361.851C670.848 352.237 663.088 344.477 653.473 344.351H583.473C573.806 344.351 565.973 352.185 565.973 361.851C565.973 371.518 573.806 379.351 583.473 379.351H653.473C663.088 379.226 670.848 371.466 670.973 361.851Z" fill="#F58426"/>
</svg>
