<svg width="816" height="816" viewBox="0 0 816 816" fill="none" xmlns="http://www.w3.org/2000/svg">
<path d="M163.198 571.194C155.694 571.194 149.598 577.29 149.598 584.794V775.192C149.598 782.696 155.694 788.792 163.198 788.792H258.397V802.392C258.397 809.896 264.493 815.992 271.997 815.992H543.995C551.499 815.992 557.594 809.896 557.594 802.392V788.792H652.794C660.298 788.792 666.393 782.696 666.393 775.192V584.794C666.393 577.29 660.298 571.194 652.794 571.194H557.594V394.396C557.594 386.892 551.499 380.796 543.995 380.796H516.795V339.996C516.795 324.994 504.597 312.797 489.595 312.797H421.596V271.997H394.396V312.797H326.397C311.394 312.797 299.197 324.994 299.197 339.996V380.796H271.997C264.493 380.796 258.397 386.892 258.397 394.396V571.194H163.198ZM639.194 598.394V761.592H557.594V598.394H639.194ZM435.196 788.792H380.796V747.992H435.196V788.792ZM326.397 339.996H489.595V380.796H326.397V339.996ZM285.597 407.996H530.395V788.792H462.395V734.393C462.395 726.888 456.3 720.793 448.795 720.793H367.196C359.692 720.793 353.596 726.888 353.596 734.393V788.792H285.597V407.996ZM176.798 761.592V598.394H258.397V761.592H176.798Z" fill="#F58426"/>
<path d="M326.397 516.795H489.595V543.995H326.397V516.795Z" fill="#F58426"/>
<path d="M326.397 448.796H489.595V475.996H326.397V448.796Z" fill="#F58426"/>
<path d="M326.397 584.795H489.595V611.995H326.397V584.795Z" fill="#F58426"/>
<path d="M326.397 652.794H489.595V679.994H326.397V652.794Z" fill="#F58426"/>
<path d="M584.795 625.595H611.995V652.794H584.795V625.595Z" fill="#F58426"/>
<path d="M584.795 679.993H611.995V707.193H584.795V679.993Z" fill="#F58426"/>
<path d="M203.998 625.595H231.198V652.794H203.998V625.595Z" fill="#F58426"/>
<path d="M203.998 679.993H231.198V707.193H203.998V679.993Z" fill="#F58426"/>
<path d="M407.996 244.798C475.479 244.798 530.395 189.882 530.395 122.399C530.395 54.915 475.479 0 407.996 0C340.513 0 285.597 54.915 285.597 122.399C285.597 189.882 340.513 244.798 407.996 244.798ZM353.937 200.664C355.661 179.748 373.044 163.198 394.396 163.198H421.596C442.948 163.198 460.331 179.748 462.055 200.664C446.688 211.313 428.068 217.598 407.996 217.598C387.924 217.598 369.302 211.314 353.937 200.664ZM407.996 135.999C392.994 135.999 380.796 123.801 380.796 108.799C380.796 93.797 392.994 81.599 407.996 81.599C422.998 81.599 435.196 93.797 435.196 108.799C435.196 123.801 422.998 135.999 407.996 135.999ZM407.996 27.1997C460.488 27.1997 503.195 69.906 503.195 122.399C503.195 143.467 496.231 162.902 484.592 178.687C478.144 162.72 465.813 149.866 450.295 142.581C457.745 133.268 462.396 121.623 462.396 108.8C462.396 78.802 437.995 54.401 407.996 54.401C377.997 54.401 353.597 78.802 353.597 108.8C353.597 121.623 358.248 133.268 365.703 142.581C350.185 149.873 337.848 162.72 331.407 178.687C319.762 162.902 312.797 143.467 312.797 122.399C312.797 69.906 355.504 27.1997 407.996 27.1997Z" fill="#F58426"/>
<path d="M693.593 108.799C626.11 108.799 571.194 163.714 571.194 231.198C571.194 298.681 626.11 353.596 693.593 353.596C761.076 353.596 815.992 298.681 815.992 231.198C815.992 163.714 761.076 108.799 693.593 108.799ZM639.534 309.471C641.258 288.555 658.641 272.005 679.993 272.005H707.193C728.546 272.005 745.929 288.555 747.652 309.471C732.286 320.12 713.665 326.404 693.593 326.404C673.521 326.404 654.9 320.121 639.534 309.471ZM693.593 244.805C678.591 244.805 666.393 232.608 666.393 217.606C666.393 202.603 678.591 190.406 693.593 190.406C708.595 190.406 720.793 202.603 720.793 217.606C720.793 232.608 708.595 244.805 693.593 244.805ZM770.189 287.493C763.741 271.526 751.41 258.672 735.893 251.388C743.342 242.074 747.993 230.43 747.993 217.607C747.993 187.608 723.592 163.208 693.593 163.208C663.594 163.208 639.194 187.608 639.194 217.607C639.194 230.43 643.845 242.074 651.3 251.388C635.782 258.679 623.445 271.526 617.004 287.493C605.359 271.708 598.395 252.274 598.395 231.205C598.395 178.713 641.101 136.006 693.594 136.006C746.086 136.006 788.793 178.713 788.793 231.205C788.793 252.274 781.828 271.708 770.189 287.493Z" fill="#F58426"/>
<path d="M122.399 353.596C189.882 353.596 244.798 298.681 244.798 231.198C244.798 163.714 189.882 108.799 122.399 108.799C54.915 108.799 0 163.714 0 231.198C0 298.681 54.915 353.596 122.399 353.596ZM68.34 309.463C70.064 288.547 87.446 271.997 108.799 271.997H135.999C157.351 271.997 174.734 288.547 176.458 309.463C161.091 320.112 142.471 326.397 122.399 326.397C102.327 326.397 83.705 320.113 68.34 309.463ZM122.399 244.797C107.397 244.797 95.199 232.6 95.199 217.598C95.199 202.595 107.397 190.398 122.399 190.398C137.401 190.398 149.599 202.595 149.599 217.598C149.599 232.6 137.401 244.797 122.399 244.797ZM122.399 135.999C174.891 135.999 217.598 178.705 217.598 231.198C217.598 252.266 210.634 271.7 198.995 287.486C192.547 271.519 180.216 258.665 164.698 251.38C172.148 242.066 176.799 230.422 176.799 217.599C176.799 187.6 152.398 163.2 122.399 163.2C92.4 163.2 68 187.6 68 217.599C68 230.422 72.65 242.067 80.106 251.38C64.588 258.672 52.25 271.519 45.809 287.486C34.1646 271.7 27.2002 252.266 27.2002 231.198C27.2002 178.705 69.906 135.999 122.399 135.999Z" fill="#F58426"/>
<path d="M40.7996 774.618V816H67.999V774.618C86.262 772.62 108.799 763.422 108.799 720.801C108.799 682.83 90.112 612.002 54.399 612.002C18.687 612.002 0 682.83 0 720.801C0 763.422 22.5369 772.614 40.7996 774.618ZM54.375 639.202C62.924 640.319 81.6 681.919 81.6 720.801C81.6 746.956 73.756 748.001 54.4 748.001C35.0446 748.001 27.2004 746.956 27.2004 720.801C27.2004 681.919 45.876 640.319 54.375 639.202Z" fill="#F58426"/>
<path d="M761.593 611.994C725.88 611.994 707.193 682.822 707.193 720.793C707.193 763.414 729.73 772.606 747.993 774.61V815.992H775.193V774.61C793.455 772.612 815.992 763.414 815.992 720.793C815.992 682.822 797.305 611.994 761.593 611.994ZM761.593 747.993C742.237 747.993 734.393 746.949 734.393 720.793C734.393 681.911 753.069 640.311 761.568 639.194C770.116 640.311 788.793 681.911 788.793 720.793C788.793 746.948 780.948 747.993 761.593 747.993Z" fill="#F58426"/>
</svg>
