<svg width="934" height="934" viewBox="0 0 934 934" fill="none" xmlns="http://www.w3.org/2000/svg">
<path d="M653.829 146H420.495C397.511 146.307 375.578 155.667 359.459 172.052C343.339 188.432 334.334 210.516 334.397 233.5V373.5C334.428 393.625 341.412 413.115 354.173 428.677C366.928 444.245 384.673 454.917 404.397 458.901V482.235C404.397 490.287 406.792 498.161 411.277 504.849C415.766 511.542 422.141 516.745 429.594 519.803C434.62 521.907 440.011 523.016 445.463 523.068C456.271 523.053 466.619 518.678 474.161 510.933L523.63 461.698H653.827C677.155 461.703 699.521 452.386 715.947 435.823C732.379 419.266 741.515 396.829 741.327 373.501V233.501C741.327 210.293 732.109 188.037 715.697 171.631C699.29 155.219 677.037 146 653.829 146ZM706.329 373.493C706.146 387.275 700.526 400.425 690.693 410.081C680.859 419.738 667.61 425.123 653.829 425.06H515.922C511.281 425.065 506.833 426.909 503.557 430.19L448.959 484.554V484.559C447.318 486.263 444.808 486.804 442.61 485.934C440.412 485.065 438.953 482.955 438.922 480.591V443.492C438.985 438.831 437.162 434.341 433.87 431.049C430.573 427.752 426.084 425.93 421.422 425.992C407.562 425.93 394.292 420.362 384.532 410.519C374.776 400.675 369.329 387.357 369.392 373.492V233.492C369.267 219.773 374.563 206.555 384.137 196.727C393.705 186.893 406.773 181.237 420.492 180.992H653.825C667.768 180.93 681.158 186.44 691.018 196.299C700.878 206.157 706.388 219.549 706.325 233.492L706.329 373.493ZM636.329 350.16C636.204 359.775 628.443 367.535 618.829 367.66H455.495C445.829 367.66 437.995 359.827 437.995 350.16C437.995 340.493 445.829 332.66 455.495 332.66H618.829C623.573 332.535 628.167 334.316 631.589 337.603C635.006 340.894 636.969 345.415 637.026 350.16H636.329ZM636.329 256.827C636.204 266.441 628.443 274.201 618.829 274.327H455.495C445.829 274.327 437.995 266.493 437.995 256.827C437.995 247.16 445.829 239.327 455.495 239.327H618.829C623.573 239.202 628.167 240.983 631.589 244.269C635.006 247.561 636.969 252.082 637.026 256.827H636.329ZM637.964 660.493C653.923 645.097 662.933 623.868 662.928 601.691C662.928 572.264 647.231 545.076 621.745 530.363C596.26 515.649 564.865 515.649 539.381 530.363C513.897 545.076 498.193 572.264 498.193 601.691C498.188 623.868 507.204 645.097 523.163 660.493C507.871 668.514 495.053 680.551 486.089 695.305C477.126 710.065 472.355 726.993 472.297 744.259C472.297 755.769 476.87 766.811 485.006 774.947C493.146 783.087 504.183 787.66 515.694 787.66H645.428C656.939 787.66 667.98 783.087 676.116 774.947C684.257 766.811 688.83 755.769 688.83 744.259C688.835 727.065 684.174 710.185 675.335 695.436C666.502 680.681 653.825 668.608 638.663 660.493H637.964ZM580.563 554.327C592.938 554.327 604.808 559.243 613.557 567.993C622.313 576.749 627.229 588.619 627.229 600.993C627.229 613.368 622.313 625.239 613.557 633.993C604.807 642.743 592.937 647.66 580.563 647.66C568.182 647.66 556.312 642.743 547.563 633.993C538.813 625.238 533.896 613.368 533.896 600.993C533.896 588.493 538.906 576.52 547.808 567.743C556.714 558.972 568.767 554.139 581.261 554.327H580.563ZM645.427 752.66H516.396C511.755 752.66 507.995 748.9 507.995 744.259C507.995 728.295 514.339 712.983 525.626 701.691C536.917 690.405 552.23 684.06 568.194 684.06H594.095C609.98 684.18 625.174 690.581 636.36 701.858C647.553 713.134 653.83 728.374 653.83 744.259C653.845 748.639 650.491 752.295 646.132 752.66H645.427ZM358.667 660.493C374.625 645.097 383.64 623.868 383.636 601.691C383.636 572.264 367.933 545.076 342.448 530.363C316.964 515.649 285.568 515.649 260.084 530.363C234.6 545.076 218.901 572.264 218.901 601.691C218.896 623.868 227.907 645.097 243.865 660.493C228.573 668.514 215.756 680.551 206.792 695.305C197.828 710.065 193.063 726.993 193 744.259C193 755.769 197.573 766.811 205.714 774.947C213.849 783.087 224.891 787.66 236.402 787.66H366.136C377.647 787.66 388.683 783.087 396.824 774.947C404.96 766.811 409.533 755.769 409.533 744.259C409.475 726.993 404.704 710.065 395.741 695.305C386.777 680.551 373.959 668.513 358.667 660.493ZM301.265 554.327C313.646 554.327 325.516 559.243 334.265 567.993C343.015 576.749 347.932 588.619 347.932 600.993C347.932 613.368 343.015 625.239 334.265 633.993C325.515 642.743 313.645 647.66 301.265 647.66C288.89 647.66 277.02 642.743 268.271 633.993C259.515 625.238 254.599 613.368 254.599 600.993C254.599 588.619 259.515 576.748 268.271 567.993C277.021 559.243 288.891 554.327 301.265 554.327ZM366.129 752.66H236.4C231.759 752.66 227.999 748.9 227.999 744.259C227.999 728.295 234.343 712.983 245.63 701.691C256.921 690.405 272.234 684.06 288.198 684.06H314.099C329.984 684.18 345.178 690.581 356.364 701.858C367.557 713.134 373.834 728.374 373.834 744.259C373.849 748.639 370.495 752.295 366.136 752.66H366.129Z" fill="#F58426"/>
</svg>
