<svg width="934" height="934" viewBox="0 0 934 934" fill="none" xmlns="http://www.w3.org/2000/svg">
<path d="M810.37 450.568L483.704 123.901C479.323 119.484 473.36 117 467.136 117C460.911 117 454.948 119.484 450.568 123.901L123.901 450.568C119.484 454.948 117 460.911 117 467.136C117 473.36 119.484 479.323 123.901 483.704L450.568 810.37C454.948 814.787 460.911 817.271 467.136 817.271C473.36 817.271 479.323 814.787 483.704 810.37L810.37 483.704C814.787 479.323 817.271 473.36 817.271 467.136C817.271 460.911 814.787 454.948 810.37 450.568ZM467.13 760.901L173.37 467.141L467.13 173.381L760.89 467.141L467.13 760.901Z" fill="#F58426"/>
<path d="M446.37 316.634L376.37 456.634C372.73 463.858 373.089 472.446 377.318 479.342C381.553 486.233 389.048 490.441 397.136 490.467H499.333L446.364 596.634H446.369C443.598 602.145 443.124 608.525 445.051 614.383C446.973 620.243 451.14 625.102 456.634 627.899C459.864 629.629 463.473 630.509 467.134 630.467C471.442 630.452 475.666 629.248 479.332 626.983C482.994 624.717 485.963 621.483 487.9 617.634L557.9 477.634C561.541 470.41 561.181 461.822 556.952 454.926C552.718 448.035 545.223 443.827 537.135 443.801H434.937L487.907 337.634H487.902C491.245 332.077 492.126 325.379 490.329 319.145C488.537 312.91 484.225 307.707 478.438 304.781C472.652 301.854 465.902 301.468 459.818 303.718C453.734 305.968 448.865 310.645 446.37 316.634Z" fill="#F58426"/>
</svg>
