<svg width="934" height="934" viewBox="0 0 934 934" fill="none" xmlns="http://www.w3.org/2000/svg">
<path d="M714 220.371C674.839 180.721 623.563 155.283 568.293 148.09C513.033 140.902 456.949 152.371 408.947 180.683C360.941 208.995 323.769 252.527 303.327 304.371C252.051 324.606 208.879 361.178 180.499 408.434C152.113 455.685 140.097 510.975 146.316 565.741C152.535 620.511 176.639 671.705 214.895 711.394C253.149 751.077 303.421 777.045 357.921 785.269C370.515 787.118 383.228 788.055 395.957 788.066C437.353 788.034 478.093 777.691 514.488 757.967L584.488 777.103C598.613 780.822 613.649 776.754 623.977 766.426C634.306 756.098 638.373 741.062 634.654 726.936L615.518 656.936C620.904 648.624 625.732 639.972 629.988 631.035C681.889 610.655 725.482 573.499 753.832 525.488C782.181 477.472 793.66 421.358 786.441 366.062C779.222 310.775 753.717 259.488 713.988 220.368L714 220.371ZM601.068 742.105C599.651 743.652 597.49 744.287 595.469 743.735L517.537 722.735H517.532C513.027 721.589 508.251 722.261 504.235 724.605C446.099 758.183 375.647 762.793 313.622 737.079C251.606 711.371 205.086 658.261 187.762 593.399C170.434 528.539 184.282 459.305 225.22 406.092C266.158 352.879 329.527 321.748 396.66 321.868C403.113 321.519 409.577 321.519 416.024 321.868C489.623 328.227 554.824 371.868 588.771 437.477C622.714 503.092 620.656 581.531 583.328 645.264C580.985 649.28 580.318 654.056 581.464 658.561L602.464 736.493V736.498C603.068 738.477 602.526 740.634 601.063 742.097L601.068 742.105ZM749.708 433.171H749.703C738.672 497.093 699.411 552.635 642.839 584.371C648.23 556.21 648.86 527.341 644.703 498.97C635.88 443.877 609.042 393.262 568.381 355.05C527.725 316.842 475.542 293.19 420.007 287.799C396.595 285.841 373.018 287.252 350.007 292.002C383.559 232.997 442.914 193.216 510.234 184.601C577.557 175.992 645.021 199.549 692.341 248.205C739.669 296.856 761.351 364.94 750.871 432.005L749.708 433.171ZM425.841 666.505H425.836C425.711 674.208 422.544 681.557 417.018 686.931C411.498 692.312 404.071 695.28 396.362 695.202C388.654 695.119 381.294 691.988 375.889 686.494C370.478 680.999 367.467 673.593 367.509 665.884C367.55 658.176 370.639 650.796 376.103 645.358C381.566 639.92 388.962 636.868 396.671 636.868C404.405 636.868 411.827 639.941 417.296 645.41C422.765 650.878 425.837 658.3 425.837 666.035L425.841 666.505ZM484.175 468.171V477.973L484.17 477.968C484.19 492.343 479.695 506.359 471.326 518.036C462.951 529.718 451.123 538.474 437.503 543.067C430.748 545.275 424.862 549.546 420.675 555.286C416.488 561.02 414.211 567.932 414.17 575.035V584.368C414.17 594.035 406.337 601.868 396.67 601.868C387.003 601.868 379.17 594.035 379.17 584.368V574.566C379.149 560.197 383.644 546.181 392.014 534.498C400.389 522.821 412.216 514.061 425.836 509.468C432.591 507.264 438.477 502.988 442.664 497.254C446.852 491.514 449.128 484.603 449.17 477.505V467.702C449.17 448.948 439.164 431.614 422.919 422.233C406.673 412.858 386.664 412.858 370.419 422.233C354.173 431.613 344.168 448.946 344.168 467.702C344.168 477.369 336.335 485.202 326.668 485.202C317.001 485.202 309.168 477.369 309.168 467.702C309.168 436.442 325.845 407.557 352.917 391.926C379.991 376.296 413.344 376.296 440.417 391.926C467.491 407.557 484.167 436.442 484.167 467.702L484.175 468.171Z" fill="#F58426"/>
</svg>
