<svg width="934" height="934" viewBox="0 0 934 934" fill="none" xmlns="http://www.w3.org/2000/svg">
<path d="M816.384 431.727C817.014 383.191 802.244 335.705 774.196 296.087C746.149 256.472 706.269 226.764 660.284 211.227C655.601 209.591 650.497 209.591 645.814 211.227C607.21 223.857 572.825 246.863 546.413 277.727C499.126 234.279 437.268 210.133 373.053 210.06C316.184 210.195 260.97 229.216 216.08 264.133C171.189 299.051 139.168 347.883 125.044 402.973C110.92 458.064 115.486 516.28 138.033 568.493C160.585 620.701 199.836 663.941 249.621 691.425C298.053 717.863 353.715 727.983 408.355 720.289C462.995 712.597 513.698 687.503 552.954 648.727C562.616 639.154 571.433 628.773 579.318 617.696C594.734 629.446 611.693 639.024 629.72 646.16V700.061C629.72 708.4 634.168 716.103 641.386 720.269C648.605 724.436 657.501 724.436 664.72 720.269C671.939 716.103 676.386 708.4 676.386 700.061V646.16C718.345 628.316 754.053 598.405 778.98 560.223C803.907 522.045 816.928 477.321 816.386 431.728L816.384 431.727ZM536.384 599.033C520.826 586.825 501.962 579.585 482.233 578.257C462.509 576.924 442.837 581.559 425.785 591.565L421.587 594.132H421.582C413.457 583.388 400.759 577.08 387.284 577.096C377.998 576.867 368.888 579.622 361.284 584.956C353.686 590.294 347.993 597.924 345.05 606.732C340.644 620.461 338.362 634.778 338.284 649.201C338.394 657.029 339.175 664.837 340.618 672.534C322.372 669.456 304.582 664.128 287.648 656.665L308.414 566.134C316.044 532.421 307.403 497.088 285.08 470.702L282.747 467.9C273.138 456.369 267.856 441.843 267.815 426.832C267.794 421.087 268.502 415.369 269.914 409.802C279.893 372.474 269.627 332.651 242.851 304.802L241.216 303.4C276.398 274.728 319.992 258.338 365.352 256.734L401.284 291.499C416.409 306.275 424.841 326.587 424.617 347.734C424.653 353.145 424.101 358.541 422.982 363.832C419.956 380.202 423.841 397.098 433.716 410.499C443.919 423.952 459.356 432.431 476.185 433.832H489.487H489.482C490.086 488.562 509.909 541.338 545.482 582.926C542.685 589.926 539.414 594.592 536.383 599.03L536.384 599.033ZM385.65 650.132C385.598 642.267 386.541 634.429 388.452 626.799C395.161 634.168 404.187 639.023 414.036 640.553C423.885 642.079 433.958 640.189 442.583 635.199L449.349 631.23H449.354C457.39 626.418 466.583 623.881 475.952 623.881C485.322 623.881 494.515 626.418 502.551 631.23C470.144 657.386 430.65 673.236 389.15 676.73C386.4 668.131 384.983 659.157 384.952 650.132L385.65 650.132ZM520.05 316.465C507.467 339.304 498.717 364.053 494.149 389.731H481.316C477.706 389.538 474.368 387.741 472.217 384.83C469.987 381.996 469.133 378.324 469.883 374.798C471.534 366.418 472.394 357.902 472.451 349.366C472.43 319.836 462.024 291.257 443.05 268.632C471.643 278.871 497.675 295.189 519.352 316.465L520.05 316.465ZM163.05 466.732C163.29 419.279 179.758 373.336 209.717 336.535C225.566 352.789 231.686 376.196 225.816 398.133C216.191 433.04 224.3 470.445 247.518 498.232L249.852 501.034C262.742 516.341 267.592 536.867 262.914 556.331L245.649 632.165C194.013 592.763 163.518 531.686 163.05 466.738L163.05 466.732ZM653.05 605.332C618.248 591.707 588.43 567.785 567.586 536.764C546.737 505.748 535.852 469.103 536.384 431.733C535.852 394.364 546.738 357.717 567.586 326.703C588.43 295.681 618.248 271.76 653.05 258.135C687.853 271.76 717.67 295.681 738.514 326.703C759.364 357.719 770.249 394.364 769.717 431.733C770.248 469.103 759.363 505.749 738.514 536.764C717.67 567.785 687.853 591.707 653.05 605.332Z" fill="#F58426"/>
</svg>
