<svg width="747" height="747" viewBox="0 0 747 747" fill="none" xmlns="http://www.w3.org/2000/svg">
<path d="M415.788 172.299C390.714 177.835 368.257 191.7 352.074 211.632C335.891 231.564 326.934 256.392 326.668 282.064V425.837C326.668 432.28 331.892 437.504 338.334 437.504C344.777 437.504 350.001 432.28 350.001 425.837V282.064C350.329 259.772 358.855 238.381 373.949 221.981C389.048 205.575 409.657 195.309 431.845 193.132C425.798 186.752 420.418 179.772 415.788 172.299Z" fill="#F58426"/>
<path d="M525 210.005C552.849 210.005 579.552 198.942 599.245 179.25C618.939 159.562 630 132.854 630 105.01C630 77.161 618.937 50.453 599.251 30.76C579.557 11.072 552.855 0.00488281 525.005 0.00488281C497.161 0.00488281 470.453 11.062 450.76 30.754C431.067 50.442 420 77.145 420 104.994C420 132.844 431.063 159.552 450.755 179.245C470.443 198.938 497.151 210 525 210.005Z" fill="#F58426"/>
<path d="M408.332 379.178V425.845C408.332 432.288 413.556 437.512 419.999 437.512C426.442 437.512 431.666 432.288 431.666 425.845V379.178C431.666 372.736 426.442 367.512 419.999 367.512C413.556 367.512 408.332 372.736 408.332 379.178Z" fill="#F58426"/>
<path d="M630 437.499C636.443 437.499 641.667 432.275 641.667 425.832V379.166C641.667 372.723 636.443 367.499 630 367.499C623.557 367.499 618.333 372.723 618.333 379.166V425.832C618.333 432.275 623.557 437.499 630 437.499Z" fill="#F58426"/>
<path d="M685.267 198.552C670.704 185.687 653.152 176.656 634.215 172.292C629.584 179.766 624.204 186.745 618.157 193.125C634.059 194.886 649.24 200.698 662.256 210.005C668.193 203.406 676.423 199.307 685.267 198.552Z" fill="#F58426"/>
<path d="M700.24 357.299L700 357.169V425.836C700 432.278 705.224 437.502 711.667 437.502C718.11 437.502 723.334 432.278 723.334 425.836V361.065C715.433 362.575 707.251 361.237 700.24 357.299Z" fill="#F58426"/>
<path d="M746.067 265.285C744.676 261.134 741.088 258.113 736.765 257.452L710.677 253.467L698.901 228.379C696.979 224.285 692.859 221.671 688.338 221.671C683.812 221.671 679.697 224.285 677.776 228.379L666 253.467L639.912 257.452C635.589 258.113 632 261.134 630.609 265.28C629.219 269.426 630.266 274.004 633.318 277.134L652.536 296.831L647.979 324.79H647.984C647.265 329.201 649.125 333.634 652.781 336.207C656.432 338.779 661.229 339.04 665.14 336.878L688.338 324.055L711.535 336.878C715.441 339.04 720.243 338.779 723.894 336.207C727.551 333.634 729.41 329.201 728.691 324.79L724.134 296.831L743.353 277.134C746.41 274.004 747.457 269.431 746.067 265.285ZM703.321 284.754H703.316C700.733 287.405 699.556 291.129 700.155 294.78L701.795 304.832L693.978 300.515L693.983 300.52C690.467 298.572 686.202 298.572 682.691 300.52L674.873 304.838L676.514 294.785V294.78C677.113 291.129 675.941 287.405 673.353 284.754L665.873 277.088L675.676 275.588H675.681C679.524 275.004 682.827 272.535 684.478 269.015L688.332 260.801L692.186 269.015H692.191C693.847 272.535 697.15 275.004 700.993 275.588L710.795 277.088L703.321 284.754Z" fill="#F58426"/>
<path d="M0 652.846V735.002C0 741.444 5.224 746.668 11.667 746.668C18.109 746.668 23.333 741.444 23.333 735.002V652.846C23.401 642.163 27.156 631.83 33.958 623.591C40.766 615.357 50.198 609.716 60.677 607.627C54.578 601.887 49.391 595.242 45.302 587.93C32.047 592.867 20.614 601.727 12.521 613.32C4.4273 624.919 0.0626975 638.706 0.000297546 652.847L0 652.846Z" fill="#F58426"/>
<path d="M188.027 587.939C183.938 595.251 178.751 601.896 172.652 607.635C183.126 609.724 192.564 615.364 199.365 623.599C206.173 631.839 209.923 642.172 209.995 652.854V735.01C209.995 741.453 215.219 746.677 221.662 746.677C228.105 746.677 233.329 741.453 233.329 735.01V652.854C233.266 638.714 228.902 624.928 220.808 613.328C212.714 601.734 201.281 592.874 188.027 587.938V587.939Z" fill="#F58426"/>
<path d="M174.999 548.339C174.999 580.558 148.884 606.673 116.666 606.673C84.447 606.673 58.332 580.558 58.332 548.339C58.332 516.126 84.447 490.006 116.666 490.006C148.884 490.006 174.999 516.126 174.999 548.339Z" fill="#F58426"/>
<path d="M0 501.672C0 508.114 5.224 513.338 11.667 513.338C18.109 513.338 23.333 508.114 23.333 501.672V419.516C23.401 408.833 27.156 398.5 33.958 390.261C40.766 382.027 50.198 376.386 60.677 374.297C54.578 368.557 49.391 361.911 45.302 354.6C32.047 359.537 20.614 368.397 12.521 379.99C4.4273 391.589 0.0626975 405.376 0.000297546 419.517L0 501.672Z" fill="#F58426"/>
<path d="M188.027 354.605C183.938 361.917 178.751 368.564 172.652 374.303C183.126 376.392 192.564 382.032 199.365 390.267C206.173 398.507 209.923 408.839 209.995 419.521V501.677C209.995 508.119 215.219 513.344 221.662 513.344C228.105 513.344 233.329 508.119 233.329 501.677V419.521C233.266 405.381 228.902 391.595 220.808 379.995C212.714 368.401 201.281 359.542 188.027 354.604V354.605Z" fill="#F58426"/>
<path d="M174.999 315.005C174.999 347.224 148.884 373.339 116.666 373.339C84.447 373.339 58.332 347.224 58.332 315.005C58.332 282.792 84.447 256.672 116.666 256.672C148.884 256.672 174.999 282.792 174.999 315.005Z" fill="#F58426"/>
<path d="M174.999 58.333C174.999 90.552 148.884 116.667 116.666 116.667C84.447 116.667 58.332 90.552 58.332 58.333C58.332 26.12 84.447 0 116.666 0C148.884 0 174.999 26.12 174.999 58.333Z" fill="#F58426"/>
<path d="M513.333 652.846V735.002C513.333 741.444 518.557 746.668 525 746.668C531.443 746.668 536.667 741.444 536.667 735.002V652.846C536.735 642.163 540.49 631.83 547.292 623.591C554.099 615.357 563.532 609.716 574.011 607.627C567.912 601.887 562.724 595.242 558.636 587.93C545.381 592.867 533.948 601.727 525.855 613.32C517.761 624.919 513.396 638.706 513.334 652.847L513.333 652.846Z" fill="#F58426"/>
<path d="M701.36 587.939C697.271 595.251 692.084 601.896 685.985 607.635C696.459 609.724 705.897 615.364 712.699 623.599C719.506 631.839 723.256 642.172 723.329 652.854V735.01C723.329 741.453 728.553 746.677 734.996 746.677C741.438 746.677 746.662 741.453 746.662 735.01V652.854C746.6 638.714 742.235 624.928 734.141 613.328C726.048 601.734 714.615 592.874 701.36 587.938V587.939Z" fill="#F58426"/>
<path d="M688.333 548.339C688.333 580.558 662.219 606.673 630 606.673C597.781 606.673 571.667 580.558 571.667 548.339C571.667 516.126 597.781 490.006 630 490.006C662.219 490.006 688.333 516.126 688.333 548.339Z" fill="#F58426"/>
<path d="M256.668 652.846V735.002C256.668 741.444 261.892 746.668 268.334 746.668C274.777 746.668 280.001 741.444 280.001 735.002V652.846C280.069 642.163 283.824 631.83 290.626 623.591C297.433 615.357 306.866 609.716 317.345 607.627C311.246 601.887 306.058 595.242 301.97 587.93C288.715 592.867 277.282 601.727 269.189 613.32C261.095 624.919 256.73 638.705 256.668 652.846Z" fill="#F58426"/>
<path d="M444.692 587.939C440.604 595.251 435.417 601.896 429.318 607.635C439.792 609.724 449.23 615.364 456.031 623.599C462.838 631.839 466.589 642.172 466.661 652.854V735.01C466.661 741.453 471.885 746.677 478.328 746.677C484.771 746.677 489.995 741.453 489.995 735.01V652.854C489.932 638.714 485.568 624.928 477.474 613.328C469.38 601.734 457.947 592.874 444.693 587.938L444.692 587.939Z" fill="#F58426"/>
<path d="M431.667 548.339C431.667 580.558 405.552 606.673 373.333 606.673C341.115 606.673 315 580.558 315 548.339C315 516.126 341.115 490.006 373.333 490.006C405.552 490.006 431.667 516.126 431.667 548.339Z" fill="#F58426"/>
<path d="M188.027 97.9317C183.938 105.245 178.751 111.891 172.652 117.629C183.126 119.718 192.564 125.359 199.365 133.593C206.173 141.833 209.923 152.167 209.995 162.848V245.004C209.995 251.447 215.219 256.671 221.662 256.671C228.105 256.671 233.329 251.447 233.329 245.004V162.848C233.266 148.708 228.902 134.921 220.808 123.321C212.714 111.728 201.281 102.868 188.027 97.9307V97.9317Z" fill="#F58426"/>
<path d="M23.3335 245.006V162.85C23.4005 152.167 27.1555 141.834 33.9585 133.595C40.7655 125.361 50.1985 119.72 60.6765 117.631C54.5775 111.891 49.3905 105.245 45.3025 97.9336C32.0465 102.871 20.6145 111.731 12.5205 123.324C4.4271 134.923 0.0624 148.71 0 162.851V245.007C0 251.45 5.224 256.674 11.6665 256.674C18.1095 256.674 23.3335 251.449 23.3335 245.006Z" fill="#F58426"/>
</svg>
