<svg width="934" height="934" viewBox="0 0 934 934" fill="none" xmlns="http://www.w3.org/2000/svg">
<path d="M176.695 450.677C179.059 472.115 191.252 491.24 209.689 502.432V699.672C209.689 718.24 217.064 736.041 230.189 749.172C243.32 762.297 261.121 769.672 279.689 769.672H653.023C671.591 769.672 689.392 762.297 702.523 749.172C715.648 736.042 723.023 718.24 723.023 699.672V502.432C741.449 491.276 753.632 472.181 755.992 450.771L769.315 334.104C771.45 314.421 765.112 294.765 751.888 280.041C738.352 264.943 719.034 256.323 698.758 256.333H606.356V233C606.356 214.432 598.981 196.631 585.856 183.5C572.726 170.375 554.924 163 536.356 163H396.356C377.788 163 359.987 170.375 346.856 183.5C333.731 196.63 326.356 214.432 326.356 233V256.333H233.955C213.695 256.307 194.371 264.901 180.824 279.969C167.585 294.715 161.251 314.407 163.418 334.105L176.695 450.677ZM676.361 699.664C676.361 705.851 673.903 711.789 669.528 716.164C665.153 720.539 659.215 722.997 653.028 722.997H279.695C273.507 722.997 267.57 720.539 263.195 716.164C258.82 711.789 256.361 705.851 256.361 699.664V512.997H396.361C396.361 538.008 409.705 561.117 431.361 573.617C453.017 586.123 479.705 586.123 501.361 573.617C523.017 561.117 536.361 538.008 536.361 512.997H676.361V699.664ZM489.695 512.997C489.695 521.336 485.247 529.039 478.028 533.205C470.809 537.372 461.913 537.372 454.695 533.205C447.476 529.039 443.028 521.336 443.028 512.997V466.331C443.028 457.992 447.476 450.289 454.695 446.123C461.913 441.956 470.809 441.956 478.028 446.123C485.247 450.289 489.695 457.992 489.695 466.331V512.997ZM373.028 232.997C373.028 226.81 375.486 220.872 379.861 216.497C384.236 212.122 390.174 209.664 396.361 209.664H536.361C542.549 209.664 548.486 212.122 552.861 216.497C557.236 220.872 559.695 226.81 559.695 232.997V256.331H373.028V232.997ZM215.575 311.117C220.246 305.888 226.95 302.93 233.96 302.998H698.76C705.77 302.93 712.473 305.888 717.145 311.117C721.526 315.919 723.64 322.367 722.958 328.825L709.635 445.607L709.63 445.612C708.802 451.409 705.89 456.706 701.442 460.519C696.994 464.331 691.317 466.393 685.458 466.331H536.365C536.365 441.32 523.021 418.211 501.365 405.711C479.709 393.206 453.021 393.206 431.365 405.711C409.709 418.211 396.365 441.32 396.365 466.331H247.272C241.391 466.394 235.693 464.31 231.241 460.477C226.788 456.644 223.887 451.315 223.074 445.493L209.798 328.826C209.106 322.368 211.215 315.925 215.585 311.118L215.575 311.117Z" fill="#F58426"/>
</svg>
