<svg width="656" height="798" viewBox="0 0 656 798" fill="none" xmlns="http://www.w3.org/2000/svg">
<path d="M569.955 170.991L655.448 85.499H598.455L569.955 56.999H541.456L484.463 113.992H370.47L284.978 28.4996H199.485L170.985 0H56.993L0 56.993L85.493 199.479V256.472L0 370.464V398.964L28.5 427.463H56.999V455.963H0.0059967V484.463L284.987 655.448V712.441L398.979 797.934L427.479 769.434L512.971 626.948L541.471 598.449L626.964 541.456L569.971 484.463L569.955 170.991ZM582.21 537.038L523.303 576.308L490.33 609.28L404.837 751.766L396.286 760.318L313.477 698.191V639.314L55.396 484.465H85.494V398.972H40.297L28.495 387.177V379.967L113.988 265.974V191.597L35.878 61.45L68.791 28.5367H159.186L187.686 57.036H273.178L358.671 142.529H496.255L553.248 85.536H558.15L586.649 114.035L541.453 159.191V496.261L582.21 537.038Z" fill="#F58426"/>
</svg>
