<svg width="934" height="934" viewBox="0 0 934 934" fill="none" xmlns="http://www.w3.org/2000/svg">
<path d="M466.857 131.001C455.06 131.121 444.466 142.058 444.712 153.856V258.34C444.545 270.168 455.264 281.048 467.092 281.048C478.915 281.048 489.639 270.168 489.472 258.34V153.856C489.722 141.903 478.81 130.872 466.862 131.001H466.857ZM263.124 205.865C255.129 206.756 247.832 212.313 244.837 219.782C241.842 227.251 243.28 236.313 248.436 242.485L315.572 324.578C322.494 334.896 338.703 337.302 348.321 329.433C357.936 321.568 358.806 305.193 350.071 296.354L282.935 214.261C278.295 208.386 270.566 205.11 263.124 205.865ZM665.711 205.865C660.059 206.683 654.768 209.756 651.257 214.261L584.121 296.354C576.007 305.297 577.142 321 586.46 328.682C595.777 336.365 611.397 334.484 618.621 324.807L685.757 242.479C691.523 235.62 692.564 225.167 688.262 217.307C683.96 209.448 674.591 204.693 665.711 205.865ZM409.284 340.438C406.508 340.418 403.638 340.438 400.893 340.673C378.904 342.553 356.872 352.1 339.586 369.126C305.212 402.975 301.117 455.631 330.961 489.47C372.592 532.949 408.139 582.459 451.013 624.737C459.331 633.341 474.863 633.341 483.18 624.737C522.888 581.857 563.596 534.409 603.232 489.47C633.076 455.626 628.981 402.975 594.607 369.126C577.32 352.099 555.29 342.553 533.3 340.673C511.311 338.793 487.92 344.949 472.456 363.064L467.097 369.36L461.738 363.064C448.211 347.22 428.707 340.605 409.29 340.438L409.284 340.438ZM404.622 385.22C415.841 384.261 423.716 387.548 427.701 392.215L450.081 418.335C458.451 428.142 475.742 428.142 484.117 418.335L506.497 392.215C510.481 387.548 518.356 384.256 529.576 385.22C540.795 386.178 553.904 391.756 563.378 401.08C583.629 421.017 583.706 443.94 569.67 459.856L467.091 576.23L364.523 459.85C350.487 443.933 350.57 421.017 370.815 401.074C380.284 391.752 393.399 386.173 404.618 385.214L404.622 385.22ZM151.689 392.683C140.996 393.491 131.653 403.006 131.033 413.719C130.413 424.432 138.596 434.959 149.126 437.001L253.558 459.391C265.032 461.834 277.694 453.61 280.132 442.131C282.574 430.652 274.356 417.986 262.881 415.543L158.449 393.147C156.131 392.512 153.683 392.788 151.689 392.679L151.689 392.683ZM779.449 392.683C778.194 392.735 776.949 392.892 775.72 393.152L671.288 415.543C659.814 417.985 651.595 430.652 654.037 442.131C656.48 453.61 669.136 461.833 680.611 459.391L785.043 437C796.001 434.797 804.236 423.333 802.835 412.24C801.433 401.147 790.611 392.095 779.449 392.688L779.449 392.683ZM279.196 556.643C275.737 556.951 272.357 558.081 269.404 559.909L179.888 612.149C169.102 617.659 164.628 632.816 170.69 643.3C176.752 653.784 192.117 657.466 202.269 650.862L291.785 598.622C300.722 593.758 305.446 582.268 302.524 572.518C299.603 562.769 289.336 555.783 279.196 556.643ZM651.942 556.643C642.317 557.175 633.489 564.628 631.349 574.029C629.208 583.43 633.943 593.977 642.385 598.622L731.902 650.862C742.053 657.466 757.417 653.789 763.48 643.3C769.543 632.815 765.069 617.654 754.282 612.149L664.766 559.909C660.949 557.57 656.416 556.419 651.942 556.643ZM392.249 660.894C382.744 661.009 373.708 667.863 371.036 676.987L341.197 774.009C337.718 785.243 344.77 798.634 356 802.113C367.229 805.591 380.609 798.54 384.088 787.301L413.926 690.279C418.374 676.753 406.473 660.629 392.249 660.894ZM541.209 660.894C527.214 661.071 515.854 676.977 520.23 690.279L550.069 787.301C553.548 798.535 566.929 805.593 578.157 802.113C589.385 798.633 596.438 785.243 592.96 774.009L563.121 676.987C560.381 667.638 550.944 660.706 541.209 660.894Z" fill="#F58426"/>
</svg>
