<svg width="283" height="95" viewBox="0 0 283 95" fill="none" xmlns="http://www.w3.org/2000/svg">
<path d="M174.705 27.8386C174.377 27.5837 173.976 27.4745 173.576 27.5837C170.043 28.3485 166.256 31.2982 166.256 34.3935V48.2316C166.256 53.9125 163.525 57.1536 158.791 57.1536H151.799C147.028 57.1536 144.334 53.9125 144.334 48.2316V34.3935C144.334 31.2617 140.546 28.3485 137.014 27.5837C136.613 27.5109 136.213 27.5837 135.885 27.8386C135.557 28.0935 135.375 28.4577 135.375 28.8583V48.1952C135.375 57.7362 140.583 65.4928 151.762 65.4928H158.754C169.752 65.4928 175.142 58.1004 175.142 48.1952V28.8583C175.214 28.4577 175.032 28.0935 174.705 27.8386Z" fill="#F68635"/>
<path d="M105.878 26.5276C111.122 26.5276 115.456 28.4213 118.405 31.9901C120.955 35.0854 122.375 39.2733 122.375 43.7889V48.2316C122.375 52.7472 120.955 56.9351 118.405 60.0304C115.419 63.5992 111.086 65.4928 105.878 65.4928H97.6482C92.3679 65.4928 87.998 63.5992 85.0119 60.0304C82.4263 56.9351 81.0061 52.7472 81.0061 48.2316V10.2861C81.0061 9.8855 81.1882 9.52134 81.5159 9.26643C81.8437 9.01151 82.2442 8.90227 82.6448 9.01151C86.1772 9.77625 89.9645 12.726 89.9645 15.8213V48.2316C89.9645 50.2709 90.5107 56.8622 97.6847 56.8622H105.915C112.943 56.8622 113.489 50.2345 113.489 48.2316V43.7889C113.489 41.7496 112.943 35.1218 105.915 35.1218H104.968C101.836 35.1218 98.9228 31.6259 98.0124 28.1299C97.7939 27.2195 98.3037 26.5276 99.3234 26.5276H105.878Z" fill="#F68635"/>
<path d="M218.44 27.8386C218.186 27.5109 217.821 27.3288 217.421 27.3288H204.784C195.717 27.3288 188.834 32.9369 188.834 44.0074V63.7085C188.834 64.546 189.526 65.2015 190.437 65.0194C193.969 64.2183 197.72 61.305 197.72 58.2096V44.9542C197.72 42.9149 198.193 36.2871 205.221 36.2871H211.849C214.981 36.2871 217.894 32.4999 218.659 28.9675C218.805 28.5669 218.695 28.13 218.44 27.8386Z" fill="#F68635"/>
<path d="M223.32 65.2015C223.648 65.4564 224.048 65.5657 224.449 65.4564C227.981 64.6917 231.732 61.742 231.732 58.6466V44.8085C231.732 39.1276 234.463 35.8866 239.198 35.8866H246.189C250.96 35.8866 253.655 39.1276 253.655 44.8085V58.6466C253.655 61.7784 257.442 64.6917 260.938 65.4564C261.339 65.5293 261.739 65.4564 262.067 65.2015C262.395 64.9466 262.577 64.5825 262.577 64.1819V44.8449C262.577 35.3039 257.369 27.5473 246.189 27.5473H239.198C228.2 27.5473 222.81 34.9398 222.81 44.8449V64.1819C222.81 64.5825 222.992 64.9466 223.32 65.2015Z" fill="#F68635"/>
<path d="M40.2565 7.44565H29.5138L28.6762 13.6C25.7629 14.2919 23.0317 15.4572 20.5554 16.9867L15.5664 13.2358L7.66414 21.1017L11.415 26.0543C9.88552 28.5306 8.72021 31.2618 8.0283 34.175L1.9104 35.049V46.2288L8.06472 47.0663C8.75662 49.9796 9.92194 52.7108 11.4514 55.1871L7.66414 60.1397L15.5664 68.042L20.519 64.2911C22.9953 65.8206 25.7265 66.9859 28.6398 67.6778L29.4774 73.8321H40.6571L41.4947 67.6778C44.408 66.9859 47.1392 65.8206 49.6155 64.2911L54.568 68.042L62.4703 60.1397L58.7559 55.1871C60.2854 52.7108 61.4507 49.9796 62.1426 47.0663L68.2969 46.2288V35.049L62.1426 34.2115C61.4507 31.2982 60.2854 28.567 58.7559 26.0907L62.5067 21.1381L54.6045 13.2358L49.6519 16.9502C47.4669 15.6028 45.027 14.5468 42.5143 13.8549C42.3687 13.8185 42.3322 13.9277 42.3322 13.9641C40.8028 26.9647 50.9993 31.4074 50.9993 41.6039C50.9993 41.6403 50.9993 41.6403 50.9993 41.6768C50.9993 41.7132 50.9993 41.7132 50.9993 41.7496C50.9993 50.5259 43.8617 57.6634 35.0854 57.6634C25.4352 57.6634 21.6115 46.3016 27.256 38.1808C27.4381 37.9259 27.2196 37.7802 26.9282 37.9259C23.8693 39.6375 21.4294 45.0634 21.2473 48.8507C21.2473 49.0692 20.9924 49.1056 20.8832 48.9236C19.6814 46.6658 19.1716 44.1166 19.1716 40.6571C19.1716 33.0097 26.0907 27.6202 25.3259 19.7907C25.2895 19.3901 25.4716 19.2809 25.6537 19.4265C27.7658 20.8832 29.1132 23.4687 29.4774 25.7993C29.5138 26.1271 29.8779 26.1271 29.9144 25.7993C30.1329 20.3734 33.993 12.0705 40.2565 7.77339C40.4386 7.73698 40.5843 7.44565 40.2565 7.44565Z" fill="#FFFFFF"/>
<path d="M84.5749 71.7928H83.2275V85.6673H84.5749V71.7928Z" fill="#FFFFFF"/>
<path d="M90.001 75.5437H88.6536V85.6674H90.001V75.5437Z" fill="#FFFFFF"/>
<path d="M97.7574 71.4651C95.7181 71.4651 94.6985 72.594 94.6985 74.8518V75.5801H93.1326V76.8182H94.6985V85.7038H96.0459V76.8182H98.9591V75.5801H96.0459V74.8518C96.0459 72.7396 97.1383 72.7397 97.9395 72.7397C98.2308 72.7397 98.5221 72.7761 98.8135 72.8489L99.032 72.8853V71.6472L98.9227 71.6107C98.5221 71.5015 98.1216 71.4651 97.7574 71.4651Z" fill="#FFFFFF"/>
<path d="M105.441 75.398C101.254 75.398 100.926 79.5494 100.926 80.824C100.926 85.1939 103.948 85.813 105.733 85.813C106.971 85.813 108.209 85.5581 109.083 85.1575L109.192 85.1211V83.7009L108.937 83.8465C108.173 84.2471 107.007 84.502 105.842 84.502C103.839 84.502 102.747 83.7009 102.492 82.0257V81.9893C102.419 81.8072 102.382 81.5887 102.346 81.3702H109.666H109.848V81.1882C109.848 81.1518 109.884 81.0425 109.884 80.6419C109.811 79.4402 109.52 75.398 105.441 75.398ZM102.31 80.1321C102.455 77.8379 103.475 76.6726 105.405 76.6726C108.1 76.6726 108.427 79.2581 108.464 80.1321H102.31Z" fill="#FFFFFF"/>
<path d="M131.224 79.7679C130.059 79.4402 129.075 79.1853 129.075 78.2385C129.075 76.8182 130.641 76.6726 131.333 76.6726C132.171 76.6726 133.008 76.8547 133.81 77.2552L134.064 77.3645V75.9807L133.955 75.9443C133.008 75.5437 132.134 75.3616 131.26 75.3616C128.675 75.3616 127.764 76.8547 127.764 78.2385C127.764 80.1685 129.403 80.6055 130.823 81.0061C132.134 81.3703 133.3 81.6616 133.3 82.9361C133.3 83.883 132.389 84.4656 130.896 84.4656C129.877 84.4656 128.893 84.2107 127.947 83.7373L127.692 83.5916V85.0119L127.801 85.0483C128.748 85.5217 129.804 85.7766 130.933 85.7766C133.227 85.7766 134.647 84.6841 134.647 82.8997C134.611 80.7148 132.717 80.2049 131.224 79.7679Z" fill="#FFFFFF"/>
<path d="M141.566 75.398C140.292 75.398 139.199 75.6893 138.653 75.8714L138.544 75.9078V77.2188L138.762 77.146C139.126 77.0367 140.182 76.709 141.493 76.709C143.496 76.709 144.479 77.583 144.552 79.4038C144.152 79.3309 143.496 79.2217 142.404 79.2217C141.275 79.2217 137.56 79.4766 137.56 82.572C137.56 84.939 139.745 85.7766 141.785 85.7766C142.731 85.7766 145.9 85.5581 145.9 82.6084V79.6223C145.936 76.7818 144.516 75.398 141.566 75.398ZM142.294 80.5327C143.423 80.5327 144.224 80.6419 144.589 80.6783V82.6084C144.589 84.2835 142.841 84.5384 141.785 84.5384C140.911 84.5384 138.871 84.3564 138.871 82.572C138.908 80.7512 141.275 80.5327 142.294 80.5327Z" fill="#FFFFFF"/>
<path d="M152.928 83.7737L149.65 75.5437H148.194L148.303 75.7622C148.922 77.2552 149.505 78.7119 150.087 80.1685C150.816 81.9529 151.508 83.7373 152.236 85.5217L152.272 85.6309H153.511L157.589 75.5073H156.133L152.928 83.7737Z" fill="#FFFFFF"/>
<path d="M161.923 75.5437H160.575V85.6674H161.923V75.5437Z" fill="#FFFFFF"/>
<path d="M170.189 75.3616C168.113 75.3616 166.402 76.1628 165.928 76.4177L165.855 76.4541V85.6309H167.166V77.2552C168.186 76.8911 169.169 76.6726 170.116 76.6726C171.973 76.6726 172.811 77.4373 172.811 79.076V85.6309H174.158V79.076C174.158 76.709 172.738 75.3616 170.189 75.3616Z" fill="#FFFFFF"/>
<path d="M181.988 75.3616C180.349 75.3616 177.582 76.0171 177.582 80.5327C177.582 83.7737 179.147 85.4853 182.097 85.4853C182.935 85.4853 183.809 85.3396 184.646 85.0483V86.0315C184.646 87.0512 184.282 88.1801 181.442 88.1801C180.604 88.1801 179.73 88.0708 178.893 87.8523L178.674 87.8159V89.1269L178.82 89.1633C179.657 89.3818 180.604 89.491 181.551 89.491C185.193 89.491 185.957 87.5974 185.957 85.9951V78.4934C185.994 77.9836 185.812 75.3616 181.988 75.3616ZM181.988 76.6362C184.464 76.6362 184.646 78.02 184.646 78.457V83.7009C183.809 84.065 182.971 84.2107 182.097 84.2107C180.604 84.2107 178.929 83.8101 178.929 80.5327C178.929 77.0367 180.677 76.6362 181.988 76.6362Z" fill="#FFFFFF"/>
<path d="M207.698 79.7679C206.532 79.4402 205.549 79.1853 205.549 78.2385C205.549 76.8182 207.115 76.6726 207.807 76.6726C208.644 76.6726 209.482 76.8547 210.283 77.2552L210.538 77.3645V75.9807L210.429 75.9443C209.482 75.5437 208.608 75.3616 207.734 75.3616C205.149 75.3616 204.238 76.8547 204.238 78.2385C204.238 80.1685 205.877 80.6055 207.297 81.0061C208.608 81.3703 209.773 81.6616 209.773 82.9361C209.773 83.883 208.863 84.4656 207.37 84.4656C206.35 84.4656 205.367 84.2107 204.42 83.7373L204.165 83.5916V85.0119L204.275 85.0483C205.221 85.5217 206.277 85.7766 207.406 85.7766C209.701 85.7766 211.121 84.6841 211.121 82.8997C211.084 80.7148 209.191 80.2049 207.698 79.7679Z" fill="#FFFFFF"/>
<path d="M217.821 84.5385C216.765 84.5385 216.328 84.1015 216.328 83.0818V76.7818H219.169V75.5437H216.328V72.7761H214.981V75.5437H213.415V76.7818H214.981V83.1182C214.981 84.9026 215.891 85.813 217.712 85.813C218.149 85.813 218.586 85.7402 219.06 85.6309L219.205 85.5945V84.2835L218.987 84.3564C218.586 84.4656 218.222 84.5385 217.821 84.5385Z" fill="#FFFFFF"/>
<path d="M226.161 75.3616C224.376 75.3616 221.427 76.0535 221.427 80.6055C221.427 85.1575 224.413 85.8494 226.161 85.8494C227.945 85.8494 230.895 85.1575 230.895 80.6055C230.931 76.0535 227.945 75.3616 226.161 75.3616ZM226.161 76.6362C228.491 76.6362 229.584 77.9107 229.584 80.6055C229.584 83.3003 228.491 84.5749 226.161 84.5749C223.83 84.5749 222.737 83.3003 222.737 80.6055C222.774 77.9107 223.83 76.6362 226.161 76.6362Z" fill="#FFFFFF"/>
<path d="M237.632 83.7737L234.354 75.5437H232.897L233.007 75.7622C233.626 77.2552 234.208 78.7119 234.791 80.1685C235.519 81.9529 236.211 83.7373 236.94 85.5217L236.976 85.6309H238.214L242.293 75.5073H240.836L237.632 83.7737Z" fill="#FFFFFF"/>
<path d="M248.957 75.398C244.769 75.398 244.441 79.5494 244.441 80.824C244.441 85.1939 247.464 85.813 249.248 85.813C250.486 85.813 251.725 85.5581 252.599 85.1575L252.708 85.1211V83.7009L252.453 83.8465C251.688 84.2471 250.523 84.502 249.358 84.502C247.355 84.502 246.262 83.7009 246.007 82.0257V81.9893C245.934 81.8072 245.898 81.5887 245.862 81.3702H253.181H253.363V81.1882C253.363 81.1518 253.4 81.0425 253.4 80.6419C253.327 79.4402 252.999 75.398 248.957 75.398ZM245.789 80.1321C245.934 77.8379 246.954 76.6726 248.884 76.6726C251.579 76.6726 251.907 79.2581 251.943 80.1321H245.789Z" fill="#FFFFFF"/>
<path d="M259.7 79.7679C258.535 79.4402 257.551 79.1853 257.551 78.2385C257.551 76.8182 259.117 76.6726 259.809 76.6726C260.647 76.6726 261.484 76.8547 262.285 77.2552L262.54 77.3645V75.9807L262.431 75.9443C261.484 75.5437 260.61 75.3616 259.736 75.3616C257.151 75.3616 256.24 76.8547 256.24 78.2385C256.24 80.1685 257.879 80.6055 259.299 81.0061C260.61 81.3703 261.776 81.6616 261.776 82.9361C261.776 83.883 260.865 84.4656 259.372 84.4656C258.352 84.4656 257.369 84.2107 256.422 83.7373L256.167 83.5916V85.0119L256.277 85.0483C257.224 85.5217 258.28 85.7766 259.409 85.7766C261.703 85.7766 263.123 84.6841 263.123 82.8997C263.087 80.7148 261.229 80.2049 259.7 79.7679Z" fill="#FFFFFF"/>
<path d="M118.77 79.8044C118.114 79.8044 117.568 80.3506 117.568 81.0061C117.568 81.6616 118.114 82.2078 118.77 82.2078C119.425 82.2078 119.971 81.6616 119.971 81.0061C119.971 80.3506 119.425 79.8044 118.77 79.8044Z" fill="#F68635"/>
<path d="M118.77 82.3899C118.005 82.3899 117.386 81.7709 117.386 81.0061C117.386 80.2414 118.005 79.6223 118.77 79.6223C119.534 79.6223 120.153 80.2414 120.153 81.0061C120.153 81.7709 119.534 82.3899 118.77 82.3899ZM118.77 79.9865C118.187 79.9865 117.75 80.4599 117.75 81.0061C117.75 81.5888 118.223 82.0258 118.77 82.0258C119.352 82.0258 119.789 81.5524 119.789 81.0061C119.789 80.4235 119.352 79.9865 118.77 79.9865Z" fill="#F68635"/>
<path d="M161.267 72.2662C160.794 72.2662 160.393 72.6668 160.393 73.1402C160.393 73.6136 160.794 74.0142 161.267 74.0142C161.741 74.0142 162.141 73.6136 162.141 73.1402C162.141 72.6668 161.741 72.2662 161.267 72.2662Z" fill="#FFFFFF"/>
<path d="M89.309 72.2662C88.8356 72.2662 88.4351 72.6668 88.4351 73.1402C88.4351 73.6136 88.8356 74.0142 89.309 74.0142C89.7825 74.0142 90.183 73.6136 90.183 73.1402C90.2194 72.6668 89.8189 72.2662 89.309 72.2662Z" fill="#FFFFFF"/>
<path d="M195.353 79.8044C194.697 79.8044 194.151 80.3506 194.151 81.0061C194.151 81.6616 194.697 82.2078 195.353 82.2078C196.008 82.2078 196.554 81.6616 196.554 81.0061C196.554 80.3506 196.008 79.8044 195.353 79.8044Z" fill="#F68635"/>
<path d="M195.353 82.3899C194.588 82.3899 193.969 81.7709 193.969 81.0061C193.969 80.2414 194.588 79.6223 195.353 79.6223C196.117 79.6223 196.736 80.2414 196.736 81.0061C196.736 81.7709 196.117 82.3899 195.353 82.3899ZM195.353 79.9865C194.77 79.9865 194.333 80.4599 194.333 81.0061C194.333 81.5888 194.806 82.0258 195.353 82.0258C195.935 82.0258 196.372 81.5524 196.372 81.0061C196.372 80.4235 195.899 79.9865 195.353 79.9865Z" fill="#F68635"/>
<path d="M268.585 28.2756H268.549C267.129 28.2756 265.781 27.693 264.762 26.6733C263.742 25.6537 263.196 24.3063 263.232 22.8496C263.232 21.4294 263.815 20.082 264.834 19.0624C265.854 18.0427 267.202 17.4965 268.658 17.5329C270.078 17.5329 271.426 18.1156 272.445 19.1352C273.465 20.1549 274.011 21.5023 273.975 22.9589C273.939 25.8722 271.535 28.2756 268.585 28.2756ZM268.585 18.1884C267.347 18.1884 266.182 18.6618 265.271 19.5358C264.361 20.4098 263.888 21.6115 263.851 22.8496C263.851 24.1242 264.325 25.2895 265.199 26.1999C266.073 27.1103 267.274 27.5837 268.513 27.6201H268.549C271.134 27.6201 273.247 25.5444 273.283 22.9589C273.283 21.6843 272.81 20.519 271.936 19.6086C271.062 18.6982 269.86 18.2248 268.622 18.1884H268.585Z" fill="#FFFFFF"/>
<path d="M267.056 25.945H265.854V19.8271C265.89 19.8271 265.927 19.7906 265.963 19.7906C267.019 19.7906 268.112 19.7906 269.168 19.8271C269.751 19.8271 270.26 20.0456 270.588 20.5918C271.025 21.3565 270.952 22.7768 269.605 23.1409C269.496 23.1773 269.386 23.2138 269.241 23.2502C269.35 23.323 269.459 23.3958 269.532 23.4687C269.933 23.76 270.188 24.1606 270.442 24.5612C270.734 24.9981 270.989 25.4716 271.316 25.945C271.062 25.945 270.807 25.9085 270.588 25.945C270.005 26.0542 269.678 25.7993 269.423 25.3259C269.131 24.8161 268.767 24.3791 268.44 23.8692C268.112 23.3594 267.602 23.323 267.019 23.3958V24.6704V25.945H267.056ZM267.056 20.8467V22.3762C267.675 22.3762 268.294 22.4126 268.913 22.3762C269.386 22.3398 269.568 22.0484 269.568 21.6115C269.568 21.2109 269.314 20.9195 268.877 20.8831C268.294 20.8103 267.675 20.8467 267.056 20.8467Z" fill="#FFFFFF"/>
</svg>
