<svg width="934" height="934" viewBox="0 0 934 934" fill="none" xmlns="http://www.w3.org/2000/svg">
<path d="M606.667 210.333V187C606.667 168.432 599.292 150.631 586.167 137.5C573.036 124.375 555.235 117 536.667 117H396.667C378.099 117 360.297 124.375 347.167 137.5C334.042 150.63 326.667 168.432 326.667 187V210.333C295.724 210.333 266.052 222.625 244.172 244.505C222.292 266.386 210 296.057 210 327V700.333C210 731.276 222.292 760.948 244.172 782.828C266.052 804.708 295.724 817 326.667 817H606.667C637.609 817 667.281 804.708 689.161 782.828C711.041 760.948 723.333 731.276 723.333 700.333V327C723.333 296.057 711.042 266.385 689.161 244.505C667.281 222.625 637.609 210.333 606.667 210.333ZM373.333 187C373.333 180.813 375.792 174.875 380.167 170.5C384.542 166.125 390.479 163.667 396.667 163.667H536.667C542.854 163.667 548.792 166.125 553.167 170.5C557.542 174.875 560 180.813 560 187V210.333H373.333V187ZM676.667 700.333C676.667 718.901 669.292 736.703 656.167 749.833C643.036 762.958 625.235 770.333 606.667 770.333H326.667C308.099 770.333 290.297 762.958 277.167 749.833C264.042 736.703 256.667 718.901 256.667 700.333V327C256.667 308.432 264.042 290.631 277.167 277.5C290.297 264.375 308.099 257 326.667 257H606.667C625.235 257 643.036 264.375 656.167 277.5C669.292 290.63 676.667 308.432 676.667 327V700.333Z" fill="#F58426"/>
<path d="M560 315.333H373.333C354.765 315.333 336.964 322.708 323.833 335.833C310.708 348.964 303.333 366.765 303.333 385.333V642C303.333 660.568 310.708 678.369 323.833 691.5C336.964 704.625 354.765 712 373.333 712H560C578.568 712 596.369 704.625 609.5 691.5C622.625 678.37 630 660.568 630 642V385.333C630 366.765 622.625 348.964 609.5 335.833C596.37 322.708 578.568 315.333 560 315.333ZM373.333 362H560C566.187 362 572.125 364.458 576.5 368.833C580.875 373.208 583.333 379.146 583.333 385.333V432H350V385.333C350 379.146 352.458 373.208 356.833 368.833C361.208 364.458 367.146 362 373.333 362ZM583.333 478.667V548.667H350V478.667H583.333ZM560 665.333H373.333C367.146 665.333 361.208 662.875 356.833 658.5C352.458 654.125 350 648.188 350 642V595.333H583.333V642C583.333 648.188 580.875 654.125 576.5 658.5C572.125 662.875 566.187 665.333 560 665.333Z" fill="#F58426"/>
</svg>
