<svg width="934" height="934" viewBox="0 0 934 934" fill="none" xmlns="http://www.w3.org/2000/svg">
<path d="M788 305.052C788 262.073 771.094 220.852 740.994 190.461C710.895 160.07 670.069 143 627.503 143H242.301C216.759 143 192.264 153.244 174.202 171.475C156.146 189.712 146 214.444 146 240.233V531.933C146 549.123 152.76 565.612 164.803 577.766C176.841 589.926 193.172 596.752 210.197 596.752H274.399V726.4C274.399 743.59 281.165 760.079 293.202 772.233C305.245 784.393 321.571 791.219 338.601 791.219H723.803C740.828 791.219 757.159 784.393 769.197 772.233C781.24 760.079 788 743.59 788 726.4V305.052ZM210.197 531.939V240.239C210.197 228.66 216.318 217.96 226.249 212.17C236.18 206.381 248.416 206.381 258.347 212.17C268.278 217.96 274.399 228.66 274.399 240.239V531.939H210.197ZM723.795 726.406H338.593V240.239C338.604 234.135 337.959 228.047 336.664 222.09V216.257C336.664 214.314 336.664 210.424 334.417 207.83L627.501 207.825C653.037 207.825 677.532 218.069 695.594 236.306C713.656 254.543 723.802 279.275 723.802 305.058L723.795 726.406Z" fill="#F58426"/>
<path d="M531.504 564.346H403.1C391.632 564.346 381.035 569.808 375.301 578.671C369.566 587.535 369.566 598.455 375.301 607.318C381.035 616.182 391.632 621.644 403.1 621.644H531.504C542.972 621.644 553.569 616.181 559.303 607.318C565.037 598.455 565.037 587.535 559.303 578.671C553.569 569.808 542.972 564.346 531.504 564.346Z" fill="#F58426"/>
<path d="M563.701 434.706H371.1C359.632 434.706 349.035 440.164 343.301 449.028C337.566 457.892 337.566 468.818 343.301 477.682C349.035 486.546 359.632 492.004 371.1 492.004H563.701C575.169 492.004 585.766 486.545 591.5 477.682C597.234 468.818 597.234 457.892 591.5 449.028C585.766 440.164 575.169 434.706 563.701 434.706Z" fill="#F58426"/>
<path d="M563.701 305.052H371.1C359.632 305.052 349.035 310.514 343.301 319.378C337.566 328.241 337.566 339.161 343.301 348.024C349.035 356.887 359.632 362.35 371.1 362.35H563.701C575.169 362.35 585.766 356.887 591.5 348.024C597.234 339.161 597.234 328.241 591.5 319.378C585.766 310.514 575.169 305.052 563.701 305.052Z" fill="#F58426"/>
</svg>
