<svg width="934" height="934" viewBox="0 0 934 934" fill="none" xmlns="http://www.w3.org/2000/svg">
<path d="M788 716.323V217C788 188.621 776.727 161.404 756.658 141.336C736.596 121.273 709.379 110 681 110H253C224.621 110 197.404 121.273 177.342 141.336C157.273 161.404 146 188.621 146 217V716.323C146 744.703 157.273 771.919 177.342 791.987C197.404 812.05 224.621 823.323 253 823.323H681C709.379 823.323 736.596 812.05 756.658 791.987C776.727 771.919 788 744.703 788 716.323ZM217.338 716.323V217C217.338 207.536 221.094 198.466 227.782 191.779C234.469 185.091 243.544 181.329 253.003 181.329H681.003C690.461 181.329 699.537 185.091 706.225 191.779C712.912 198.466 716.668 207.537 716.668 217V716.323C716.668 725.787 712.912 734.857 706.225 741.545C699.537 748.232 690.462 751.994 681.003 751.994H253.003C243.545 751.994 234.469 748.232 227.782 741.545C221.094 734.857 217.338 725.787 217.338 716.323Z" fill="#F58426"/>
<path d="M431.338 431.001C440.796 431.001 449.866 427.239 456.554 420.551C463.247 413.864 467.003 404.793 467.003 395.33V270.501C467.003 261.037 463.247 251.967 456.554 245.279C449.866 238.592 440.796 234.83 431.338 234.83H306.503C297.045 234.83 287.969 238.592 281.282 245.279C274.594 251.967 270.838 261.037 270.838 270.501V395.33C270.838 404.794 274.594 413.864 281.282 420.551C287.969 427.239 297.044 431.001 306.503 431.001H431.338ZM342.168 306.165H395.668V359.665H342.168V306.165Z" fill="#F58426"/>
<path d="M645.339 234.823H538.339C525.597 234.823 513.822 240.835 507.451 250.588C501.08 260.341 501.08 272.358 507.451 282.112C513.822 291.865 525.596 297.877 538.339 297.877H645.339C658.081 297.877 669.855 291.865 676.226 282.112C682.597 272.359 682.597 260.342 676.226 250.588C669.855 240.834 658.081 234.823 645.339 234.823Z" fill="#F58426"/>
<path d="M609.662 502.323H324.339C311.597 502.323 299.822 508.335 293.451 518.088C287.08 527.841 287.08 539.858 293.451 549.612C299.822 559.365 311.596 565.377 324.339 565.377H609.677H609.671C622.413 565.377 634.188 559.365 640.559 549.612C646.93 539.859 646.93 527.842 640.559 518.088C634.188 508.335 622.413 502.323 609.671 502.323H609.662Z" fill="#F58426"/>
<path d="M609.662 609.323H324.339C311.597 609.323 299.822 615.335 293.451 625.088C287.08 634.841 287.08 646.858 293.451 656.612C299.822 666.365 311.596 672.377 324.339 672.377H609.677H609.671C622.413 672.377 634.188 666.365 640.559 656.612C646.93 646.859 646.93 634.842 640.559 625.088C634.188 615.335 622.413 609.323 609.671 609.323H609.662Z" fill="#F58426"/>
</svg>
