<svg width="934" height="934" viewBox="0 0 934 934" fill="none" xmlns="http://www.w3.org/2000/svg">
<path d="M240.314 479.259L302.305 511.828L290.463 442.821L340.66 393.994L271.322 383.901L240.315 321.075L209.338 383.901L140 393.994L190.172 442.821L178.331 511.828L240.314 479.259Z" fill="#F58426"/>
<path d="M517.699 269.793L567.872 220.913L498.534 210.873L467.556 148L436.549 210.873L367.242 220.913L417.415 269.793L405.573 338.831L467.558 306.238L529.542 338.831L517.699 269.793Z" fill="#F58426"/>
<path d="M345.793 657.702L314.786 594.828L283.808 657.702L214.477 667.741L264.643 716.646L252.801 785.659L314.786 753.06L376.776 785.659L364.935 716.646L415.132 667.741L345.793 657.702Z" fill="#F58426"/>
<path d="M793.67 393.99L724.332 383.897L693.354 321.071L662.347 383.897L593.01 393.99L643.206 442.817L631.365 511.824L693.355 479.255L755.34 511.824L743.498 442.817L793.67 393.99Z" fill="#F58426"/>
<path d="M649.863 657.702L618.885 594.828L587.879 657.702L518.541 667.741L568.738 716.646L556.896 785.659L618.887 753.06L680.871 785.659L669.029 716.646L719.196 667.741L649.863 657.702Z" fill="#F58426"/>
</svg>
