<svg width="934" height="934" viewBox="0 0 934 934" fill="none" xmlns="http://www.w3.org/2000/svg">
<path d="M767.432 695.253L657.429 620.841C699.492 569.073 725.374 504.366 725.374 433.187C725.374 271.416 595.957 142 434.187 142C272.416 142 143 271.416 143 433.187C143 594.957 272.416 724.374 434.187 724.374C505.368 724.374 570.074 698.493 621.841 656.429L696.253 766.432C715.666 795.549 754.488 798.786 777.138 776.136C799.788 750.255 793.32 711.433 767.434 695.256L767.432 695.253ZM434.185 659.662C308.004 659.662 207.706 559.363 207.706 433.183C207.706 307.004 308.005 206.705 434.185 206.705C560.364 206.705 660.663 307.004 660.663 433.183C660.663 559.363 560.364 659.662 434.185 659.662Z" fill="#F58426"/>
<path d="M369.477 368.476C369.477 349.063 382.417 336.122 401.831 336.122C421.244 336.122 434.185 323.182 434.185 303.768C434.185 284.355 418.008 271.414 401.831 271.414C346.826 271.414 304.768 313.472 304.768 368.476C304.768 387.89 317.709 400.83 337.122 400.83C356.536 400.83 369.477 387.89 369.477 368.476Z" fill="#F58426"/>
<path d="M498.893 336.123C479.479 336.123 466.539 349.063 466.539 368.477C466.539 387.89 479.479 400.831 498.893 400.831C518.306 400.831 531.247 413.771 531.247 433.185C531.247 452.598 544.187 465.539 563.601 465.539C583.014 465.539 595.955 452.598 595.955 433.185C595.955 378.181 553.897 336.123 498.893 336.123Z" fill="#F58426"/>
<path d="M434.185 530.247C414.771 530.247 401.831 517.306 401.831 497.893C401.831 478.479 388.89 465.539 369.476 465.539C350.063 465.539 337.122 478.479 337.122 497.893C337.122 552.897 379.18 594.955 434.185 594.955C453.598 594.955 466.539 582.014 466.539 562.601C466.539 543.187 450.362 530.247 434.185 530.247Z" fill="#F58426"/>
</svg>
