<svg width="934" height="934" viewBox="0 0 934 934" fill="none" xmlns="http://www.w3.org/2000/svg">
<path d="M231.901 198.001C163.537 198.001 108 254.017 108 322.605V436.938C108 442.876 110.359 448.574 114.563 452.777C118.766 456.975 124.458 459.334 130.401 459.334H249.871C255.808 459.334 261.506 456.975 265.709 452.777C269.907 448.574 272.267 442.876 272.267 436.938V317.469C272.256 313.531 271.214 309.672 269.235 306.271C271.215 302.865 272.256 299.005 272.267 295.068V220.401C272.267 214.464 269.907 208.766 265.709 204.563C261.506 200.365 255.808 198.005 249.871 198L231.901 198.001ZM418.568 198.001C350.204 198.001 294.667 254.017 294.667 322.605V436.938C294.667 442.876 297.026 448.574 301.229 452.777C305.432 456.975 311.125 459.334 317.068 459.334H436.537C442.475 459.334 448.173 456.975 452.376 452.777C456.574 448.574 458.933 442.876 458.933 436.938V317.469C458.923 313.531 457.881 309.672 455.902 306.271C457.881 302.865 458.923 299.005 458.933 295.068V220.401C458.933 214.464 456.574 208.766 452.376 204.563C448.173 200.365 442.475 198.005 436.537 198L418.568 198.001ZM227.475 243.735V273.605C218.969 274.615 211.011 276.167 202.74 280.605C192.12 286.303 182.672 301.058 182.672 313.969V317.469C182.672 323.411 185.031 329.104 189.235 333.307C193.438 337.511 199.13 339.87 205.073 339.87H227.475V414.537H152.808V322.605C152.808 279.495 185.568 246.131 227.475 243.735ZM414.141 243.735V273.605C405.636 274.615 397.677 276.167 389.407 280.605C378.787 286.303 369.339 301.058 369.339 313.969V317.469C369.339 323.411 371.698 329.104 375.901 333.307C380.104 337.511 385.797 339.87 391.74 339.87H414.141V414.537H339.475V322.605C339.475 279.495 372.235 246.131 414.141 243.735ZM493.939 474.269C488.413 474.847 483.298 477.461 479.589 481.597C475.881 485.738 473.845 491.107 473.876 496.665V616.134C473.923 619.988 474.969 623.77 476.907 627.103C474.891 630.572 473.844 634.52 473.876 638.535V713.202C473.876 719.139 476.235 724.837 480.433 729.041C484.636 733.239 490.334 735.598 496.272 735.603H514.241C582.605 735.603 638.142 679.353 638.142 610.77V496.666C638.142 490.728 635.783 485.03 631.58 480.827C627.377 476.629 621.684 474.27 615.741 474.27H496.272C495.496 474.228 494.72 474.227 493.939 474.269ZM680.605 474.269C675.079 474.847 669.965 477.461 666.256 481.597C662.548 485.738 660.511 491.107 660.542 496.665V616.134C660.589 619.988 661.636 623.77 663.574 627.103C661.558 630.572 660.511 634.52 660.542 638.535V713.202C660.542 719.139 662.902 724.837 667.1 729.041C671.303 733.239 677.001 735.598 682.938 735.603H700.908C769.272 735.603 824.809 679.353 824.809 610.77V496.666C824.809 490.728 822.45 485.03 818.247 480.827C814.044 476.629 808.351 474.27 802.408 474.27H682.939C682.162 474.228 681.387 474.227 680.605 474.269ZM518.672 519.066H593.339V610.769C593.339 653.878 560.584 687.471 518.672 689.867V659.769C527.177 658.753 535.136 657.201 543.407 652.769C554.026 647.071 563.475 632.545 563.475 619.633V616.133C563.475 610.19 561.115 604.497 556.912 600.294C552.709 596.091 547.016 593.732 541.073 593.732H518.672L518.672 519.066ZM705.339 519.066H780.005V610.769C780.005 653.878 747.251 687.471 705.339 689.867V659.769C713.844 658.753 721.803 657.201 730.073 652.769C740.693 647.071 750.141 632.545 750.141 619.633V616.133C750.141 610.19 747.782 604.497 743.579 600.294C739.376 596.091 733.683 593.732 727.74 593.732H705.339L705.339 519.066Z" fill="#F58426"/>
</svg>
