<svg width="934" height="934" viewBox="0 0 934 934" fill="none" xmlns="http://www.w3.org/2000/svg">
<path d="M466.667 788.135C447.448 786.234 429.401 778.031 415.333 764.802C408.443 758.495 400.563 753.37 392 749.635C382.12 747.917 372.016 747.917 362.136 749.635C343.735 754.083 324.391 752.36 307.068 744.734C291.557 734.042 280 718.546 274.167 700.636C271.026 691.261 266.292 682.5 260.167 674.734C252.193 668.187 243.104 663.125 233.333 659.802C215.041 654.49 199.036 643.245 187.833 627.833C180.208 610.516 178.484 591.166 182.932 572.77C184.656 562.885 184.656 552.781 182.932 542.901C179.198 534.344 174.073 526.458 167.766 519.568C154.536 505.5 146.334 487.453 144.432 468.234C146.333 449.021 154.536 430.969 167.766 416.901C174.073 410.016 179.198 402.13 182.932 393.568C184.656 383.687 184.656 373.584 182.932 363.704C178.484 345.308 180.208 325.958 187.833 308.636C198.729 292.532 214.771 280.605 233.333 274.802C242.708 271.662 251.469 266.927 259.235 260.802C265.782 252.828 270.844 243.74 274.167 233.969C279.661 216.016 290.891 200.365 306.136 189.401C323.453 181.776 342.803 180.057 361.199 184.5C371.084 186.224 381.188 186.224 391.068 184.5C399.625 180.766 407.511 175.641 414.401 169.333C428.469 156.104 446.516 147.901 465.735 146C484.948 147.901 503 156.104 517.068 169.333C523.953 175.641 531.839 180.766 540.401 184.5C550.282 186.224 560.385 186.224 570.265 184.5C588.661 180.057 608.011 181.776 625.333 189.401C640.953 200.901 652.219 217.349 657.303 236.068C660.443 245.443 665.178 254.208 671.303 261.969C679.063 268.094 687.824 272.828 697.199 275.969C715.496 281.282 731.501 292.526 742.699 307.938C750.324 325.256 752.048 344.605 747.6 363.001C745.881 372.887 745.881 382.99 747.6 392.87C751.334 401.428 756.459 409.313 762.766 416.204C775.996 430.272 784.198 448.318 786.1 467.537C784.199 486.75 775.996 504.802 762.766 518.87C756.459 525.756 751.334 533.641 747.6 542.204C745.881 552.084 745.881 562.188 747.6 572.068C752.048 590.464 750.324 609.813 742.699 627.136C732.329 642.313 717.365 653.766 700.001 659.802C690.626 662.943 681.865 667.677 674.1 673.802C667.98 681.563 663.241 690.329 660.1 699.704C654.787 717.996 643.543 734.001 628.136 745.204C610.813 752.829 591.464 754.547 573.068 750.105C563.188 748.381 553.084 748.381 543.199 750.105C534.641 753.839 526.756 758.964 519.865 765.271C505.245 778.709 486.48 786.771 466.668 788.135H466.667ZM381.735 713.234C387.953 713.208 394.151 713.989 400.167 715.567C413.573 720.193 425.943 727.406 436.568 736.802C444.974 744.818 455.365 750.453 466.667 753.135C477.984 750.495 488.385 744.854 496.765 736.802C507.39 727.406 519.76 720.193 533.167 715.567C547.5 712.771 562.235 712.771 576.568 715.567C587.339 718.484 598.693 718.484 609.469 715.567C617.766 707.739 623.808 697.827 626.969 686.87C631.521 673.167 638.823 660.542 648.433 649.771C659.173 640.11 671.808 632.798 685.532 628.302C696.428 625.12 706.319 619.172 714.235 611.037C717.146 600.183 717.146 588.755 714.235 577.901C711.433 563.573 711.433 548.833 714.235 534.499C718.86 521.093 726.073 508.729 735.469 498.103C743.48 489.692 749.12 479.306 751.803 467.999C749.12 456.697 743.48 446.311 735.469 437.901C726.073 427.276 718.86 414.911 714.235 401.499C711.433 387.171 711.433 372.431 714.235 358.103C717.146 347.327 717.146 335.973 714.235 325.202C706.407 316.905 696.495 310.858 685.532 307.702C671.808 303.202 659.172 295.895 648.433 286.233C638.777 275.493 631.464 262.858 626.969 249.134C623.782 238.238 617.834 228.353 609.699 220.437C598.85 217.525 587.417 217.525 576.568 220.437C562.235 223.234 547.5 223.234 533.167 220.437C519.76 215.812 507.391 208.593 496.765 199.202C488.521 190.676 478.12 184.546 466.667 181.467C455.349 184.108 444.948 189.749 436.568 197.801C425.943 207.197 413.573 214.41 400.167 219.035C385.833 221.832 371.099 221.832 356.765 219.035C345.995 216.119 334.64 216.119 323.864 219.035C315.567 226.864 309.525 236.775 306.364 247.733C301.812 261.435 294.51 274.061 284.9 284.831C274.16 294.493 261.525 301.805 247.801 306.301C236.905 309.483 227.015 315.431 219.099 323.566C216.187 334.42 216.187 345.847 219.099 356.702C221.901 371.03 221.901 385.77 219.099 400.103C214.474 413.51 207.26 425.874 197.864 436.499C189.489 445.025 183.599 455.677 180.833 467.302C183.516 478.604 189.151 488.995 197.167 497.401C206.563 508.026 213.776 520.395 218.401 533.802C221.198 548.135 221.198 562.87 218.401 577.203C215.485 587.974 215.485 599.329 218.401 610.105C226.229 618.402 236.141 624.443 247.099 627.605C260.823 632.1 273.459 639.412 284.197 649.069C293.859 659.808 301.171 672.443 305.667 686.167C308.849 697.063 314.797 706.954 322.932 714.87C333.786 717.782 345.213 717.782 356.068 714.87C364.573 713.703 373.151 713.156 381.735 713.234ZM458.5 517.474L553.697 424.141C560.593 417.313 560.645 406.187 553.817 399.291C546.984 392.396 535.858 392.344 528.968 399.172L446.369 480.604L404.369 439.073H404.364C397.536 432.25 386.463 432.25 379.635 439.073C372.806 445.906 372.806 456.974 379.635 463.808L433.999 517.24C437.264 520.547 441.723 522.396 446.363 522.375C450.915 522.505 455.316 520.729 458.499 517.474L458.5 517.474ZM466.667 683.141C409.421 683.141 354.527 660.401 314.053 619.927C273.58 579.449 250.84 524.553 250.84 467.314C250.84 410.075 273.58 355.174 314.053 314.701C354.532 274.227 409.428 251.487 466.667 251.487C523.905 251.487 578.807 274.227 619.28 314.701C659.753 355.179 682.493 410.075 682.493 467.314C682.431 524.538 659.671 579.397 619.207 619.861C578.743 660.325 523.884 683.085 466.66 683.147L466.667 683.141ZM466.667 286.474C418.708 286.474 372.713 305.526 338.797 339.438C304.885 373.355 285.833 419.35 285.833 467.307C285.833 515.265 304.885 561.261 338.797 595.177C372.715 629.089 418.709 648.141 466.667 648.141C514.624 648.141 560.62 629.089 594.536 595.177C628.448 561.259 647.5 515.265 647.5 467.307C647.437 419.365 628.364 373.406 594.469 339.505C560.568 305.609 514.609 286.535 466.667 286.474Z" fill="#F58426"/>
</svg>
