<svg width="934" height="934" viewBox="0 0 934 934" fill="none" xmlns="http://www.w3.org/2000/svg">
<path d="M746.667 676.999H676.667V605.135C715.505 599.525 751.031 580.124 776.74 550.473C802.449 520.823 816.62 482.911 816.667 443.667C816.667 362.932 751.568 163.667 653.333 163.667C619.203 166.49 588.412 185.26 570.265 214.303C543.667 159.235 508.901 117 466.667 117C424.432 117 389.667 159.235 363.068 214.303C344.923 185.261 314.131 166.491 280 163.667C181.765 163.667 116.667 362.933 116.667 443.667C116.714 482.912 130.885 520.823 156.593 550.473C182.301 580.124 217.828 599.525 256.667 605.135V676.999H186.667C168.099 676.999 150.297 684.374 137.167 697.499C124.042 710.629 116.667 728.431 116.667 746.999V793.665C116.667 799.853 119.125 805.79 123.5 810.165C127.875 814.54 133.812 816.999 140 816.999H793.333C799.521 816.999 805.458 814.54 809.833 810.165C814.208 805.79 816.667 799.853 816.667 793.665V746.999C816.667 728.431 809.292 710.629 796.167 697.499C783.036 684.374 765.235 676.999 746.667 676.999ZM490 676.999V605.135C515.219 601.609 539.224 592.088 560 577.364C580.855 591.948 604.823 601.457 630 605.135V676.999H490ZM653.333 210.332C707 210.332 770 364.572 770 443.665C770 474.608 757.708 504.28 735.828 526.16C713.948 548.04 684.276 560.332 653.333 560.332C632.797 560.301 612.645 554.738 595 544.233C617.703 515.635 630.041 480.181 630 443.665C625.724 382.863 612.76 322.988 591.5 265.865C612.735 230.636 634.901 210.335 653.333 210.335V210.332ZM466.667 163.665C516.833 163.665 583.333 355.692 583.333 443.665C583.333 485.348 561.099 523.863 525 544.701C488.901 565.54 444.432 565.54 408.333 544.701C372.235 523.863 350 485.347 350 443.665C350 355.696 416.5 163.665 466.667 163.665ZM163.333 443.665C163.333 364.567 226.333 210.332 280 210.332C298.432 210.332 320.599 230.635 341.833 265.863C320.573 322.988 307.609 382.863 303.333 443.663C303.292 480.179 315.63 515.632 338.333 544.231C320.688 554.736 300.536 560.299 280 560.329C249.057 560.329 219.385 548.038 197.505 526.157C175.625 504.277 163.333 474.605 163.333 443.663V443.665ZM303.333 605.132C328.511 601.455 352.479 591.945 373.333 577.361C394.109 592.085 418.115 601.607 443.333 605.132V676.996H303.333V605.132ZM770 770.332H163.333V746.999C163.333 740.811 165.792 734.874 170.167 730.499C174.542 726.124 180.479 723.665 186.667 723.665H746.667C752.854 723.665 758.792 726.124 763.167 730.499C767.542 734.874 770 740.811 770 746.999V770.332Z" fill="#F58426"/>
</svg>
